0
SECTION
2
HEADER
9
$ACADVER
1
AC1009
9
$INSUNITS
70
4
9
$MEASUREMENT
70
1
9
$LUNITS
70
2
9
$EXTMIN
10
0.0
20
0.0
30
0.0
9
$EXTMAX
10
236.0000
20
444.0000
30
0.0
0
ENDSEC
0
SECTION
2
TABLES
0
TABLE
2
LTYPE
70
1
0
LTYPE
2
CONTINUOUS
70
0
3
Solid line
72
65
73
0
40
0.0
0
ENDTAB
0
TABLE
2
LAYER
70
3
0
LAYER
2
PANEL_OUTLINE
70
0
62
7
6
CONTINUOUS
0
LAYER
2
CUTOUT
70
0
62
1
6
CONTINUOUS
0
LAYER
2
BORDER_STRIP
70
0
62
3
6
CONTINUOUS
0
ENDTAB
0
ENDSEC
0
SECTION
2
ENTITIES
0
POLYLINE
8
PANEL_OUTLINE
66
1
70
1
10
0.0
20
0.0
30
0.0
0
VERTEX
8
PANEL_OUTLINE
10
3.0000
20
0.0000
30
0.0
42
0.0000000000
0
VERTEX
8
PANEL_OUTLINE
10
191.0000
20
0.0000
30
0.0
42
0.4142135624
0
VERTEX
8
PANEL_OUTLINE
10
194.0000
20
3.0000
30
0.0
42
0.0000000000
0
VERTEX
8
PANEL_OUTLINE
10
194.0000
20
381.0000
30
0.0
42
0.4142135624
0
VERTEX
8
PANEL_OUTLINE
10
191.0000
20
384.0000
30
0.0
42
0.0000000000
0
VERTEX
8
PANEL_OUTLINE
10
3.0000
20
384.0000
30
0.0
42
0.4142135624
0
VERTEX
8
PANEL_OUTLINE
10
0.0000
20
381.0000
30
0.0
42
0.0000000000
0
VERTEX
8
PANEL_OUTLINE
10
0.0000
20
3.0000
30
0.0
42
0.4142135624
0
SEQEND
8
PANEL_OUTLINE
0
POLYLINE
8
CUTOUT
66
1
70
1
10
0.0
20
0.0
30
0.0
0
VERTEX
8
CUTOUT
10
25.3900
20
27.8150
30
0.0
42
0.0000000000
0
VERTEX
8
CUTOUT
10
174.6100
20
27.8150
30
0.0
42
0.4142135624
0
VERTEX
8
CUTOUT
10
176.6100
20
29.8150
30
0.0
42
0.0000000000
0
VERTEX
8
CUTOUT
10
176.6100
20
267.4850
30
0.0
42
0.4142135624
0
VERTEX
8
CUTOUT
10
174.6100
20
269.4850
30
0.0
42
0.0000000000
0
VERTEX
8
CUTOUT
10
25.3900
20
269.4850
30
0.0
42
0.4142135624
0
VERTEX
8
CUTOUT
10
23.3900
20
267.4850
30
0.0
42
0.0000000000
0
VERTEX
8
CUTOUT
10
23.3900
20
29.8150
30
0.0
42
0.4142135624
0
SEQEND
8
CUTOUT
0
POLYLINE
8
CUTOUT
66
1
70
1
10
0.0
20
0.0
30
0.0
0
VERTEX
8
CUTOUT
10
28.4100
20
287.4850
30
0.0
42
0.0000000000
0
VERTEX
8
CUTOUT
10
171.5900
20
287.4850
30
0.0
42
0.4142135624
0
VERTEX
8
CUTOUT
10
173.5900
20
289.4850
30
0.0
42
0.0000000000
0
VERTEX
8
CUTOUT
10
173.5900
20
354.1850
30
0.0
42
0.4142135624
0
VERTEX
8
CUTOUT
10
171.5900
20
356.1850
30
0.0
42
0.0000000000
0
VERTEX
8
CUTOUT
10
28.4100
20
356.1850
30
0.0
42
0.4142135624
0
VERTEX
8
CUTOUT
10
26.4100
20
354.1850
30
0.0
42
0.0000000000
0
VERTEX
8
CUTOUT
10
26.4100
20
289.4850
30
0.0
42
0.4142135624
0
SEQEND
8
CUTOUT
0
CIRCLE
8
CUTOUT
10
63.0000
20
371.0000
30
0.0
40
1.6000
0
CIRCLE
8
CUTOUT
10
134.0000
20
371.0000
30
0.0
40
1.6000
0
CIRCLE
8
CUTOUT
10
30.0000
20
16.0000
30
0.0
40
1.6000
0
CIRCLE
8
CUTOUT
10
164.0000
20
16.0000
30
0.0
40
1.6000
0
POLYLINE
8
BORDER_STRIP
66
1
70
1
10
0.0
20
0.0
30
0.0
0
VERTEX
8
BORDER_STRIP
10
204.0010
20
0.0000
30
0.0
42
0.0000000000
0
VERTEX
8
BORDER_STRIP
10
215.9990
20
0.0000
30
0.0
42
0.4142135624
0
VERTEX
8
BORDER_STRIP
10
216.0000
20
0.0010
30
0.0
42
0.0000000000
0
VERTEX
8
BORDER_STRIP
10
216.0000
20
377.9990
30
0.0
42
0.4142135624
0
VERTEX
8
BORDER_STRIP
10
215.9990
20
378.0000
30
0.0
42
0.0000000000
0
VERTEX
8
BORDER_STRIP
10
204.0010
20
378.0000
30
0.0
42
0.4142135624
0
VERTEX
8
BORDER_STRIP
10
204.0000
20
377.9990
30
0.0
42
0.0000000000
0
VERTEX
8
BORDER_STRIP
10
204.0000
20
0.0010
30
0.0
42
0.4142135624
0
SEQEND
8
BORDER_STRIP
0
POLYLINE
8
BORDER_STRIP
66
1
70
1
10
0.0
20
0.0
30
0.0
0
VERTEX
8
BORDER_STRIP
10
226.0010
20
0.0000
30
0.0
42
0.0000000000
0
VERTEX
8
BORDER_STRIP
10
235.9990
20
0.0000
30
0.0
42
0.4142135624
0
VERTEX
8
BORDER_STRIP
10
236.0000
20
0.0010
30
0.0
42
0.0000000000
0
VERTEX
8
BORDER_STRIP
10
236.0000
20
377.9990
30
0.0
42
0.4142135624
0
VERTEX
8
BORDER_STRIP
10
235.9990
20
378.0000
30
0.0
42
0.0000000000
0
VERTEX
8
BORDER_STRIP
10
226.0010
20
378.0000
30
0.0
42
0.4142135624
0
VERTEX
8
BORDER_STRIP
10
226.0000
20
377.9990
30
0.0
42
0.0000000000
0
VERTEX
8
BORDER_STRIP
10
226.0000
20
0.0010
30
0.0
42
0.4142135624
0
SEQEND
8
BORDER_STRIP
0
POLYLINE
8
BORDER_STRIP
66
1
70
1
10
0.0
20
0.0
30
0.0
0
VERTEX
8
BORDER_STRIP
10
0.0010
20
394.0000
30
0.0
42
0.0000000000
0
VERTEX
8
BORDER_STRIP
10
171.9990
20
394.0000
30
0.0
42
0.4142135624
0
VERTEX
8
BORDER_STRIP
10
172.0000
20
394.0010
30
0.0
42
0.0000000000
0
VERTEX
8
BORDER_STRIP
10
172.0000
20
413.9990
30
0.0
42
0.4142135624
0
VERTEX
8
BORDER_STRIP
10
171.9990
20
414.0000
30
0.0
42
0.0000000000
0
VERTEX
8
BORDER_STRIP
10
0.0010
20
414.0000
30
0.0
42
0.4142135624
0
VERTEX
8
BORDER_STRIP
10
0.0000
20
413.9990
30
0.0
42
0.0000000000
0
VERTEX
8
BORDER_STRIP
10
0.0000
20
394.0010
30
0.0
42
0.4142135624
0
SEQEND
8
BORDER_STRIP
0
CIRCLE
8
CUTOUT
10
51.0000
20
401.0000
30
0.0
40
1.6000
0
CIRCLE
8
CUTOUT
10
122.0000
20
401.0000
30
0.0
40
1.6000
0
POLYLINE
8
BORDER_STRIP
66
1
70
1
10
0.0
20
0.0
30
0.0
0
VERTEX
8
BORDER_STRIP
10
0.0010
20
424.0000
30
0.0
42
0.0000000000
0
VERTEX
8
BORDER_STRIP
10
171.9990
20
424.0000
30
0.0
42
0.4142135624
0
VERTEX
8
BORDER_STRIP
10
172.0000
20
424.0010
30
0.0
42
0.0000000000
0
VERTEX
8
BORDER_STRIP
10
172.0000
20
443.9990
30
0.0
42
0.4142135624
0
VERTEX
8
BORDER_STRIP
10
171.9990
20
444.0000
30
0.0
42
0.0000000000
0
VERTEX
8
BORDER_STRIP
10
0.0010
20
444.0000
30
0.0
42
0.4142135624
0
VERTEX
8
BORDER_STRIP
10
0.0000
20
443.9990
30
0.0
42
0.0000000000
0
VERTEX
8
BORDER_STRIP
10
0.0000
20
424.0010
30
0.0
42
0.4142135624
0
SEQEND
8
BORDER_STRIP
0
CIRCLE
8
CUTOUT
10
18.0000
20
440.0000
30
0.0
40
1.6000
0
CIRCLE
8
CUTOUT
10
152.0000
20
440.0000
30
0.0
40
1.6000
0
ENDSEC
0
EOF
