0
SECTION
2
HEADER
9
$ACADVER
1
AC1009
9
$INSUNITS
70
4
9
$MEASUREMENT
70
1
9
$LUNITS
70
2
9
$EXTMIN
10
0.0
20
0.0
30
0.0
9
$EXTMAX
10
194.0000
20
384.0000
30
0.0
0
ENDSEC
0
SECTION
2
TABLES
0
TABLE
2
LTYPE
70
1
0
LTYPE
2
CONTINUOUS
70
0
3
Solid line
72
65
73
0
40
0.0
0
ENDTAB
0
TABLE
2
LAYER
70
2
0
LAYER
2
CUT_OUTER
70
0
62
1
6
CONTINUOUS
0
LAYER
2
CUT_INNER
70
0
62
1
6
CONTINUOUS
0
ENDTAB
0
ENDSEC
0
SECTION
2
ENTITIES
0
POLYLINE
8
CUT_OUTER
66
1
70
1
10
0.0
20
0.0
30
0.0
0
VERTEX
8
CUT_OUTER
10
3.0000
20
0.0000
30
0.0
42
0.0000000000
0
VERTEX
8
CUT_OUTER
10
191.0000
20
0.0000
30
0.0
42
0.4142135624
0
VERTEX
8
CUT_OUTER
10
194.0000
20
3.0000
30
0.0
42
0.0000000000
0
VERTEX
8
CUT_OUTER
10
194.0000
20
381.0000
30
0.0
42
0.4142135624
0
VERTEX
8
CUT_OUTER
10
191.0000
20
384.0000
30
0.0
42
0.0000000000
0
VERTEX
8
CUT_OUTER
10
3.0000
20
384.0000
30
0.0
42
0.4142135624
0
VERTEX
8
CUT_OUTER
10
0.0000
20
381.0000
30
0.0
42
0.0000000000
0
VERTEX
8
CUT_OUTER
10
0.0000
20
3.0000
30
0.0
42
0.4142135624
0
SEQEND
8
CUT_OUTER
0
POLYLINE
8
CUT_INNER
66
1
70
1
10
0.0
20
0.0
30
0.0
0
VERTEX
8
CUT_INNER
10
25.3900
20
27.8150
30
0.0
42
0.0000000000
0
VERTEX
8
CUT_INNER
10
174.6100
20
27.8150
30
0.0
42
0.4142135624
0
VERTEX
8
CUT_INNER
10
176.6100
20
29.8150
30
0.0
42
0.0000000000
0
VERTEX
8
CUT_INNER
10
176.6100
20
267.4850
30
0.0
42
0.4142135624
0
VERTEX
8
CUT_INNER
10
174.6100
20
269.4850
30
0.0
42
0.0000000000
0
VERTEX
8
CUT_INNER
10
25.3900
20
269.4850
30
0.0
42
0.4142135624
0
VERTEX
8
CUT_INNER
10
23.3900
20
267.4850
30
0.0
42
0.0000000000
0
VERTEX
8
CUT_INNER
10
23.3900
20
29.8150
30
0.0
42
0.4142135624
0
SEQEND
8
CUT_INNER
0
POLYLINE
8
CUT_INNER
66
1
70
1
10
0.0
20
0.0
30
0.0
0
VERTEX
8
CUT_INNER
10
28.4100
20
287.4850
30
0.0
42
0.0000000000
0
VERTEX
8
CUT_INNER
10
171.5900
20
287.4850
30
0.0
42
0.4142135624
0
VERTEX
8
CUT_INNER
10
173.5900
20
289.4850
30
0.0
42
0.0000000000
0
VERTEX
8
CUT_INNER
10
173.5900
20
354.1850
30
0.0
42
0.4142135624
0
VERTEX
8
CUT_INNER
10
171.5900
20
356.1850
30
0.0
42
0.0000000000
0
VERTEX
8
CUT_INNER
10
28.4100
20
356.1850
30
0.0
42
0.4142135624
0
VERTEX
8
CUT_INNER
10
26.4100
20
354.1850
30
0.0
42
0.0000000000
0
VERTEX
8
CUT_INNER
10
26.4100
20
289.4850
30
0.0
42
0.4142135624
0
SEQEND
8
CUT_INNER
0
CIRCLE
8
CUT_INNER
10
63.0000
20
371.0000
30
0.0
40
1.6000
0
CIRCLE
8
CUT_INNER
10
134.0000
20
371.0000
30
0.0
40
1.6000
0
CIRCLE
8
CUT_INNER
10
30.0000
20
16.0000
30
0.0
40
1.6000
0
CIRCLE
8
CUT_INNER
10
164.0000
20
16.0000
30
0.0
40
1.6000
0
POLYLINE
8
CUT_OUTER
66
1
70
1
10
0.0
20
0.0
30
0.0
0
VERTEX
8
CUT_OUTER
10
31.3900
20
32.8150
30
0.0
42
0.0000000000
0
VERTEX
8
CUT_OUTER
10
45.3900
20
32.8150
30
0.0
42
0.0000000000
0
VERTEX
8
CUT_OUTER
10
45.3900
20
224.8150
30
0.0
42
0.0000000000
0
VERTEX
8
CUT_OUTER
10
28.3900
20
224.8150
30
0.0
42
0.0000000000
0
VERTEX
8
CUT_OUTER
10
28.3900
20
35.8150
30
0.0
42
0.4142135624
0
SEQEND
8
CUT_OUTER
0
POLYLINE
8
CUT_OUTER
66
1
70
1
10
0.0
20
0.0
30
0.0
0
VERTEX
8
CUT_OUTER
10
49.3900
20
32.8150
30
0.0
42
0.0000000000
0
VERTEX
8
CUT_OUTER
10
66.3900
20
32.8150
30
0.0
42
0.0000000000
0
VERTEX
8
CUT_OUTER
10
66.3900
20
116.5500
30
0.0
42
0.0000000000
0
VERTEX
8
CUT_OUTER
10
69.3900
20
116.5500
30
0.0
42
0.0000000000
0
VERTEX
8
CUT_OUTER
10
69.3900
20
224.8150
30
0.0
42
0.0000000000
0
VERTEX
8
CUT_OUTER
10
52.3900
20
224.8150
30
0.0
42
0.4142135624
0
VERTEX
8
CUT_OUTER
10
49.3900
20
221.8150
30
0.0
42
0.0000000000
0
SEQEND
8
CUT_OUTER
0
POLYLINE
8
CUT_OUTER
66
1
70
1
10
0.0
20
0.0
30
0.0
0
VERTEX
8
CUT_OUTER
10
73.3900
20
32.8150
30
0.0
42
0.0000000000
0
VERTEX
8
CUT_OUTER
10
81.3900
20
32.8150
30
0.0
42
0.4142135624
0
VERTEX
8
CUT_OUTER
10
84.3900
20
35.8150
30
0.0
42
0.0000000000
0
VERTEX
8
CUT_OUTER
10
84.3900
20
224.8150
30
0.0
42
0.0000000000
0
VERTEX
8
CUT_OUTER
10
73.3900
20
224.8150
30
0.0
42
0.0000000000
0
SEQEND
8
CUT_OUTER
0
POLYLINE
8
CUT_OUTER
66
1
70
1
10
0.0
20
0.0
30
0.0
0
VERTEX
8
CUT_OUTER
10
102.3900
20
32.8150
30
0.0
42
0.0000000000
0
VERTEX
8
CUT_OUTER
10
102.3900
20
221.8150
30
0.0
42
0.4142135624
0
VERTEX
8
CUT_OUTER
10
99.3900
20
224.8150
30
0.0
42
0.0000000000
0
VERTEX
8
CUT_OUTER
10
88.3900
20
224.8150
30
0.0
42
0.0000000000
0
VERTEX
8
CUT_OUTER
10
88.3900
20
116.5500
30
0.0
42
0.0000000000
0
VERTEX
8
CUT_OUTER
10
91.3900
20
116.5500
30
0.0
42
0.0000000000
0
VERTEX
8
CUT_OUTER
10
91.3900
20
32.8150
30
0.0
42
0.0000000000
0
SEQEND
8
CUT_OUTER
0
POLYLINE
8
CUT_OUTER
66
1
70
1
10
0.0
20
0.0
30
0.0
0
VERTEX
8
CUT_OUTER
10
130.8900
20
32.8150
30
0.0
42
0.0000000000
0
VERTEX
8
CUT_OUTER
10
130.8900
20
192.8150
30
0.0
42
0.0000000000
0
VERTEX
8
CUT_OUTER
10
106.3900
20
192.8150
30
0.0
42
0.0000000000
0
VERTEX
8
CUT_OUTER
10
106.3900
20
32.8150
30
0.0
42
0.0000000000
0
SEQEND
8
CUT_OUTER
0
CIRCLE
8
CUT_INNER
10
119.3900
20
75.8150
30
0.0
40
1.6000
0
CIRCLE
8
CUT_INNER
10
119.3900
20
146.8150
30
0.0
40
1.6000
0
POLYLINE
8
CUT_OUTER
66
1
70
1
10
0.0
20
0.0
30
0.0
0
VERTEX
8
CUT_OUTER
10
156.3900
20
32.8150
30
0.0
42
0.0000000000
0
VERTEX
8
CUT_OUTER
10
156.3900
20
198.8150
30
0.0
42
0.0000000000
0
VERTEX
8
CUT_OUTER
10
134.8900
20
198.8150
30
0.0
42
0.0000000000
0
VERTEX
8
CUT_OUTER
10
134.8900
20
32.8150
30
0.0
42
0.0000000000
0
SEQEND
8
CUT_OUTER
0
CIRCLE
8
CUT_INNER
10
140.3900
20
45.8150
30
0.0
40
1.6000
0
CIRCLE
8
CUT_INNER
10
140.3900
20
179.8150
30
0.0
40
1.6000
0
POLYLINE
8
CUT_OUTER
66
1
70
1
10
0.0
20
0.0
30
0.0
0
VERTEX
8
CUT_OUTER
10
168.8900
20
32.8150
30
0.0
42
0.0000000000
0
VERTEX
8
CUT_OUTER
10
168.8900
20
192.8150
30
0.0
42
0.0000000000
0
VERTEX
8
CUT_OUTER
10
160.3900
20
192.8150
30
0.0
42
0.0000000000
0
VERTEX
8
CUT_OUTER
10
160.3900
20
32.8150
30
0.0
42
0.0000000000
0
SEQEND
8
CUT_OUTER
0
POLYLINE
8
CUT_OUTER
66
1
70
1
10
0.0
20
0.0
30
0.0
0
VERTEX
8
CUT_OUTER
10
69.1075
20
305.7315
30
0.0
0
VERTEX
8
CUT_OUTER
10
69.4725
20
305.8595
30
0.0
0
VERTEX
8
CUT_OUTER
10
69.8575
20
305.5515
30
0.0
0
VERTEX
8
CUT_OUTER
10
70.5705
20
304.6435
30
0.0
0
VERTEX
8
CUT_OUTER
10
70.8105
20
304.5475
30
0.0
0
VERTEX
8
CUT_OUTER
10
71.0985
20
304.5415
30
0.0
0
VERTEX
8
CUT_OUTER
10
71.5085
20
304.6855
30
0.0
0
VERTEX
8
CUT_OUTER
10
71.8395
20
305.0005
30
0.0
0
VERTEX
8
CUT_OUTER
10
72.0145
20
305.4255
30
0.0
0
VERTEX
8
CUT_OUTER
10
71.9985
20
305.8495
30
0.0
0
VERTEX
8
CUT_OUTER
10
71.7655
20
306.4105
30
0.0
0
VERTEX
8
CUT_OUTER
10
71.3705
20
306.8135
30
0.0
0
VERTEX
8
CUT_OUTER
10
70.7315
20
307.1005
30
0.0
0
VERTEX
8
CUT_OUTER
10
70.0245
20
307.2095
30
0.0
0
VERTEX
8
CUT_OUTER
10
69.3835
20
307.1305
30
0.0
0
VERTEX
8
CUT_OUTER
10
68.6965
20
306.8265
30
0.0
0
VERTEX
8
CUT_OUTER
10
68.1095
20
306.4375
30
0.0
0
VERTEX
8
CUT_OUTER
10
67.6405
20
305.9255
30
0.0
0
VERTEX
8
CUT_OUTER
10
67.3455
20
305.3205
30
0.0
0
VERTEX
8
CUT_OUTER
10
67.2115
20
304.6765
30
0.0
0
VERTEX
8
CUT_OUTER
10
67.2335
20
304.0325
30
0.0
0
VERTEX
8
CUT_OUTER
10
67.4175
20
303.4515
30
0.0
0
VERTEX
8
CUT_OUTER
10
67.7445
20
302.9325
30
0.0
0
VERTEX
8
CUT_OUTER
10
68.1915
20
302.5655
30
0.0
0
VERTEX
8
CUT_OUTER
10
68.7405
20
302.3045
30
0.0
0
VERTEX
8
CUT_OUTER
10
69.4685
20
302.1375
30
0.0
0
VERTEX
8
CUT_OUTER
10
70.1785
20
302.1095
30
0.0
0
VERTEX
8
CUT_OUTER
10
70.8865
20
302.1785
30
0.0
0
VERTEX
8
CUT_OUTER
10
71.6715
20
302.3645
30
0.0
0
VERTEX
8
CUT_OUTER
10
72.3555
20
302.6235
30
0.0
0
VERTEX
8
CUT_OUTER
10
73.0955
20
303.0065
30
0.0
0
VERTEX
8
CUT_OUTER
10
73.7845
20
303.4725
30
0.0
0
VERTEX
8
CUT_OUTER
10
74.4215
20
304.0195
30
0.0
0
VERTEX
8
CUT_OUTER
10
74.9945
20
304.6415
30
0.0
0
VERTEX
8
CUT_OUTER
10
75.6665
20
305.6185
30
0.0
0
VERTEX
8
CUT_OUTER
10
76.1795
20
306.7125
30
0.0
0
VERTEX
8
CUT_OUTER
10
76.4585
20
307.7755
30
0.0
0
VERTEX
8
CUT_OUTER
10
76.5415
20
308.8495
30
0.0
0
VERTEX
8
CUT_OUTER
10
76.3865
20
310.0405
30
0.0
0
VERTEX
8
CUT_OUTER
10
76.0235
20
311.0745
30
0.0
0
VERTEX
8
CUT_OUTER
10
75.4615
20
311.9925
30
0.0
0
VERTEX
8
CUT_OUTER
10
74.7155
20
312.7605
30
0.0
0
VERTEX
8
CUT_OUTER
10
74.0165
20
313.2345
30
0.0
0
VERTEX
8
CUT_OUTER
10
73.2945
20
313.5705
30
0.0
0
VERTEX
8
CUT_OUTER
10
72.5035
20
313.7945
30
0.0
0
VERTEX
8
CUT_OUTER
10
71.6395
20
313.9035
30
0.0
0
VERTEX
8
CUT_OUTER
10
70.6625
20
313.8985
30
0.0
0
VERTEX
8
CUT_OUTER
10
69.5455
20
313.7655
30
0.0
0
VERTEX
8
CUT_OUTER
10
68.6145
20
313.5515
30
0.0
0
VERTEX
8
CUT_OUTER
10
67.5235
20
313.1775
30
0.0
0
VERTEX
8
CUT_OUTER
10
66.6185
20
312.7615
30
0.0
0
VERTEX
8
CUT_OUTER
10
65.5865
20
312.1805
30
0.0
0
VERTEX
8
CUT_OUTER
10
64.6145
20
311.5185
30
0.0
0
VERTEX
8
CUT_OUTER
10
63.7035
20
310.7775
30
0.0
0
VERTEX
8
CUT_OUTER
10
62.8525
20
309.9565
30
0.0
0
VERTEX
8
CUT_OUTER
10
62.0755
20
309.0675
30
0.0
0
VERTEX
8
CUT_OUTER
10
61.3805
20
308.1225
30
0.0
0
VERTEX
8
CUT_OUTER
10
60.7635
20
307.1125
30
0.0
0
VERTEX
8
CUT_OUTER
10
60.2265
20
306.0445
30
0.0
0
VERTEX
8
CUT_OUTER
10
59.8595
20
305.1305
30
0.0
0
VERTEX
8
CUT_OUTER
10
59.5765
20
304.2065
30
0.0
0
VERTEX
8
CUT_OUTER
10
59.3815
20
303.2835
30
0.0
0
VERTEX
8
CUT_OUTER
10
59.2725
20
302.3555
30
0.0
0
VERTEX
8
CUT_OUTER
10
59.2465
20
301.1735
30
0.0
0
VERTEX
8
CUT_OUTER
10
59.3455
20
300.1255
30
0.0
0
VERTEX
8
CUT_OUTER
10
59.5375
20
299.2725
30
0.0
0
VERTEX
8
CUT_OUTER
10
59.8285
20
298.4615
30
0.0
0
VERTEX
8
CUT_OUTER
10
60.2655
20
297.6025
30
0.0
0
VERTEX
8
CUT_OUTER
10
60.7905
20
296.8185
30
0.0
0
VERTEX
8
CUT_OUTER
10
61.3115
20
296.2055
30
0.0
0
VERTEX
8
CUT_OUTER
10
61.9875
20
295.5755
30
0.0
0
VERTEX
8
CUT_OUTER
10
62.7285
20
295.0265
30
0.0
0
VERTEX
8
CUT_OUTER
10
63.5255
20
294.5615
30
0.0
0
VERTEX
8
CUT_OUTER
10
64.3795
20
294.1795
30
0.0
0
VERTEX
8
CUT_OUTER
10
65.3985
20
293.8525
30
0.0
0
VERTEX
8
CUT_OUTER
10
66.5445
20
293.6335
30
0.0
0
VERTEX
8
CUT_OUTER
10
67.5725
20
293.5715
30
0.0
0
VERTEX
8
CUT_OUTER
10
68.6805
20
293.6295
30
0.0
0
VERTEX
8
CUT_OUTER
10
69.7725
20
293.8035
30
0.0
0
VERTEX
8
CUT_OUTER
10
70.8495
20
294.0935
30
0.0
0
VERTEX
8
CUT_OUTER
10
72.0275
20
294.5335
30
0.0
0
VERTEX
8
CUT_OUTER
10
73.1755
20
295.0745
30
0.0
0
VERTEX
8
CUT_OUTER
10
74.2925
20
295.7155
30
0.0
0
VERTEX
8
CUT_OUTER
10
75.3725
20
296.4375
30
0.0
0
VERTEX
8
CUT_OUTER
10
77.4245
20
298.0965
30
0.0
0
VERTEX
8
CUT_OUTER
10
79.3105
20
299.9005
30
0.0
0
VERTEX
8
CUT_OUTER
10
82.7055
20
303.8675
30
0.0
0
VERTEX
8
CUT_OUTER
10
82.8995
20
304.0475
30
0.0
0
VERTEX
8
CUT_OUTER
10
83.3335
20
304.0875
30
0.0
0
VERTEX
8
CUT_OUTER
10
85.0615
20
304.1675
30
0.0
0
VERTEX
8
CUT_OUTER
10
83.7705
20
301.0745
30
0.0
0
VERTEX
8
CUT_OUTER
10
83.1835
20
299.1515
30
0.0
0
VERTEX
8
CUT_OUTER
10
83.0505
20
298.3845
30
0.0
0
VERTEX
8
CUT_OUTER
10
82.9905
20
297.4925
30
0.0
0
VERTEX
8
CUT_OUTER
10
83.0185
20
296.6115
30
0.0
0
VERTEX
8
CUT_OUTER
10
83.1355
20
295.7525
30
0.0
0
VERTEX
8
CUT_OUTER
10
83.4845
20
294.8245
30
0.0
0
VERTEX
8
CUT_OUTER
10
84.0325
20
294.1335
30
0.0
0
VERTEX
8
CUT_OUTER
10
84.7325
20
293.6815
30
0.0
0
VERTEX
8
CUT_OUTER
10
85.6625
20
293.4795
30
0.0
0
VERTEX
8
CUT_OUTER
10
86.7355
20
293.5375
30
0.0
0
VERTEX
8
CUT_OUTER
10
87.6375
20
293.8185
30
0.0
0
VERTEX
8
CUT_OUTER
10
88.5235
20
294.3555
30
0.0
0
VERTEX
8
CUT_OUTER
10
89.4315
20
295.1485
30
0.0
0
VERTEX
8
CUT_OUTER
10
89.6105
20
294.9885
30
0.0
0
VERTEX
8
CUT_OUTER
10
89.8705
20
294.8925
30
0.0
0
VERTEX
8
CUT_OUTER
10
90.9465
20
294.8265
30
0.0
0
VERTEX
8
CUT_OUTER
10
91.8815
20
294.9335
30
0.0
0
VERTEX
8
CUT_OUTER
10
92.4835
20
295.2185
30
0.0
0
VERTEX
8
CUT_OUTER
10
92.7595
20
295.5215
30
0.0
0
VERTEX
8
CUT_OUTER
10
92.9895
20
295.9205
30
0.0
0
VERTEX
8
CUT_OUTER
10
94.1015
20
298.7895
30
0.0
0
VERTEX
8
CUT_OUTER
10
94.6925
20
299.9565
30
0.0
0
VERTEX
8
CUT_OUTER
10
95.1335
20
300.6495
30
0.0
0
VERTEX
8
CUT_OUTER
10
96.1655
20
302.0825
30
0.0
0
VERTEX
8
CUT_OUTER
10
97.2145
20
303.3295
30
0.0
0
VERTEX
8
CUT_OUTER
10
98.0955
20
304.1585
30
0.0
0
VERTEX
8
CUT_OUTER
10
98.4295
20
304.3635
30
0.0
0
VERTEX
8
CUT_OUTER
10
98.6825
20
304.4395
30
0.0
0
VERTEX
8
CUT_OUTER
10
98.7705
20
304.3565
30
0.0
0
VERTEX
8
CUT_OUTER
10
98.7375
20
303.8115
30
0.0
0
VERTEX
8
CUT_OUTER
10
98.4815
20
303.0445
30
0.0
0
VERTEX
8
CUT_OUTER
10
95.4955
20
295.2345
30
0.0
0
VERTEX
8
CUT_OUTER
10
95.5245
20
295.0105
30
0.0
0
VERTEX
8
CUT_OUTER
10
95.6995
20
294.8705
30
0.0
0
VERTEX
8
CUT_OUTER
10
97.6795
20
294.8445
30
0.0
0
VERTEX
8
CUT_OUTER
10
98.1365
20
294.9945
30
0.0
0
VERTEX
8
CUT_OUTER
10
98.5115
20
295.2915
30
0.0
0
VERTEX
8
CUT_OUTER
10
98.9205
20
295.9025
30
0.0
0
VERTEX
8
CUT_OUTER
10
100.4525
20
299.3765
30
0.0
0
VERTEX
8
CUT_OUTER
10
101.2075
20
300.8955
30
0.0
0
VERTEX
8
CUT_OUTER
10
101.7475
20
301.8135
30
0.0
0
VERTEX
8
CUT_OUTER
10
102.4105
20
302.7335
30
0.0
0
VERTEX
8
CUT_OUTER
10
103.0845
20
303.4755
30
0.0
0
VERTEX
8
CUT_OUTER
10
103.7105
20
303.9995
30
0.0
0
VERTEX
8
CUT_OUTER
10
104.2085
20
304.2005
30
0.0
0
VERTEX
8
CUT_OUTER
10
104.3705
20
304.2025
30
0.0
0
VERTEX
8
CUT_OUTER
10
104.2715
20
303.7105
30
0.0
0
VERTEX
8
CUT_OUTER
10
102.2695
20
299.1255
30
0.0
0
VERTEX
8
CUT_OUTER
10
102.0025
20
298.2275
30
0.0
0
VERTEX
8
CUT_OUTER
10
101.8905
20
297.3525
30
0.0
0
VERTEX
8
CUT_OUTER
10
101.9005
20
296.8675
30
0.0
0
VERTEX
8
CUT_OUTER
10
101.9935
20
296.3955
30
0.0
0
VERTEX
8
CUT_OUTER
10
102.1485
20
296.0015
30
0.0
0
VERTEX
8
CUT_OUTER
10
102.4015
20
295.5905
30
0.0
0
VERTEX
8
CUT_OUTER
10
102.6535
20
295.3125
30
0.0
0
VERTEX
8
CUT_OUTER
10
102.9955
20
295.0695
30
0.0
0
VERTEX
8
CUT_OUTER
10
103.3415
20
294.9235
30
0.0
0
VERTEX
8
CUT_OUTER
10
103.7745
20
294.8355
30
0.0
0
VERTEX
8
CUT_OUTER
10
104.6895
20
294.8855
30
0.0
0
VERTEX
8
CUT_OUTER
10
105.4685
20
295.1645
30
0.0
0
VERTEX
8
CUT_OUTER
10
106.2855
20
295.7445
30
0.0
0
VERTEX
8
CUT_OUTER
10
107.0325
20
296.5065
30
0.0
0
VERTEX
8
CUT_OUTER
10
107.1865
20
296.0135
30
0.0
0
VERTEX
8
CUT_OUTER
10
107.3995
20
295.6445
30
0.0
0
VERTEX
8
CUT_OUTER
10
107.6865
20
295.3395
30
0.0
0
VERTEX
8
CUT_OUTER
10
108.0425
20
295.1085
30
0.0
0
VERTEX
8
CUT_OUTER
10
108.4565
20
294.9545
30
0.0
0
VERTEX
8
CUT_OUTER
10
108.9355
20
294.8725
30
0.0
0
VERTEX
8
CUT_OUTER
10
109.4965
20
294.8675
30
0.0
0
VERTEX
8
CUT_OUTER
10
109.9695
20
294.9415
30
0.0
0
VERTEX
8
CUT_OUTER
10
110.6775
20
295.1895
30
0.0
0
VERTEX
8
CUT_OUTER
10
111.3775
20
295.5905
30
0.0
0
VERTEX
8
CUT_OUTER
10
112.1735
20
296.1965
30
0.0
0
VERTEX
8
CUT_OUTER
10
112.9045
20
296.9045
30
0.0
0
VERTEX
8
CUT_OUTER
10
113.2615
20
296.1245
30
0.0
0
VERTEX
8
CUT_OUTER
10
113.8175
20
295.4345
30
0.0
0
VERTEX
8
CUT_OUTER
10
114.4665
20
294.9865
30
0.0
0
VERTEX
8
CUT_OUTER
10
115.3455
20
294.6925
30
0.0
0
VERTEX
8
CUT_OUTER
10
115.9775
20
294.6155
30
0.0
0
VERTEX
8
CUT_OUTER
10
116.6465
20
294.6235
30
0.0
0
VERTEX
8
CUT_OUTER
10
117.8955
20
294.8795
30
0.0
0
VERTEX
8
CUT_OUTER
10
119.0895
20
295.4165
30
0.0
0
VERTEX
8
CUT_OUTER
10
119.6145
20
295.7755
30
0.0
0
VERTEX
8
CUT_OUTER
10
120.0925
20
296.2025
30
0.0
0
VERTEX
8
CUT_OUTER
10
120.8665
20
295.8995
30
0.0
0
VERTEX
8
CUT_OUTER
10
120.7835
20
295.6035
30
0.0
0
VERTEX
8
CUT_OUTER
10
120.8245
20
295.3435
30
0.0
0
VERTEX
8
CUT_OUTER
10
120.9815
20
295.1305
30
0.0
0
VERTEX
8
CUT_OUTER
10
121.2345
20
294.9855
30
0.0
0
VERTEX
8
CUT_OUTER
10
122.2335
20
294.8245
30
0.0
0
VERTEX
8
CUT_OUTER
10
122.8845
20
294.8565
30
0.0
0
VERTEX
8
CUT_OUTER
10
123.3275
20
294.9585
30
0.0
0
VERTEX
8
CUT_OUTER
10
123.7435
20
295.2095
30
0.0
0
VERTEX
8
CUT_OUTER
10
124.0575
20
295.6225
30
0.0
0
VERTEX
8
CUT_OUTER
10
124.6755
20
297.1085
30
0.0
0
VERTEX
8
CUT_OUTER
10
125.4275
20
299.2005
30
0.0
0
VERTEX
8
CUT_OUTER
10
126.7365
20
301.4775
30
0.0
0
VERTEX
8
CUT_OUTER
10
127.5695
20
302.6435
30
0.0
0
VERTEX
8
CUT_OUTER
10
128.3795
20
303.5885
30
0.0
0
VERTEX
8
CUT_OUTER
10
129.0715
20
304.2275
30
0.0
0
VERTEX
8
CUT_OUTER
10
129.5765
20
304.4705
30
0.0
0
VERTEX
8
CUT_OUTER
10
129.7255
20
304.4725
30
0.0
0
VERTEX
8
CUT_OUTER
10
129.8075
20
304.2355
30
0.0
0
VERTEX
8
CUT_OUTER
10
129.7255
20
303.6695
30
0.0
0
VERTEX
8
CUT_OUTER
10
127.7385
20
299.1295
30
0.0
0
VERTEX
8
CUT_OUTER
10
127.4935
20
298.3315
30
0.0
0
VERTEX
8
CUT_OUTER
10
127.3695
20
297.5465
30
0.0
0
VERTEX
8
CUT_OUTER
10
127.3975
20
296.6665
30
0.0
0
VERTEX
8
CUT_OUTER
10
127.6435
20
295.9475
30
0.0
0
VERTEX
8
CUT_OUTER
10
128.1125
20
295.3205
30
0.0
0
VERTEX
8
CUT_OUTER
10
128.7285
20
294.9495
30
0.0
0
VERTEX
8
CUT_OUTER
10
129.1655
20
294.8445
30
0.0
0
VERTEX
8
CUT_OUTER
10
129.6655
20
294.8255
30
0.0
0
VERTEX
8
CUT_OUTER
10
130.2375
20
294.9035
30
0.0
0
VERTEX
8
CUT_OUTER
10
130.7105
20
295.0575
30
0.0
0
VERTEX
8
CUT_OUTER
10
131.1545
20
295.2905
30
0.0
0
VERTEX
8
CUT_OUTER
10
131.6255
20
295.6375
30
0.0
0
VERTEX
8
CUT_OUTER
10
132.5275
20
296.5385
30
0.0
0
VERTEX
8
CUT_OUTER
10
132.6875
20
296.0135
30
0.0
0
VERTEX
8
CUT_OUTER
10
132.9145
20
295.6255
30
0.0
0
VERTEX
8
CUT_OUTER
10
133.2995
20
295.2545
30
0.0
0
VERTEX
8
CUT_OUTER
10
133.6955
20
295.0405
30
0.0
0
VERTEX
8
CUT_OUTER
10
134.2625
20
294.8925
30
0.0
0
VERTEX
8
CUT_OUTER
10
134.9275
20
294.8625
30
0.0
0
VERTEX
8
CUT_OUTER
10
135.5505
20
294.9615
30
0.0
0
VERTEX
8
CUT_OUTER
10
136.1785
20
295.1895
30
0.0
0
VERTEX
8
CUT_OUTER
10
136.8005
20
295.5395
30
0.0
0
VERTEX
8
CUT_OUTER
10
137.4655
20
296.0215
30
0.0
0
VERTEX
8
CUT_OUTER
10
138.0895
20
296.5785
30
0.0
0
VERTEX
8
CUT_OUTER
10
138.7345
20
297.2725
30
0.0
0
VERTEX
8
CUT_OUTER
10
139.9095
20
298.8695
30
0.0
0
VERTEX
8
CUT_OUTER
10
140.4295
20
299.7645
30
0.0
0
VERTEX
8
CUT_OUTER
10
140.7535
20
300.4745
30
0.0
0
VERTEX
8
CUT_OUTER
10
140.7055
20
300.6745
30
0.0
0
VERTEX
8
CUT_OUTER
10
140.4955
20
300.8745
30
0.0
0
VERTEX
8
CUT_OUTER
10
140.0075
20
301.0735
30
0.0
0
VERTEX
8
CUT_OUTER
10
139.7615
20
301.0155
30
0.0
0
VERTEX
8
CUT_OUTER
10
139.5295
20
300.4805
30
0.0
0
VERTEX
8
CUT_OUTER
10
139.0565
20
299.7305
30
0.0
0
VERTEX
8
CUT_OUTER
10
137.7635
20
298.0925
30
0.0
0
VERTEX
8
CUT_OUTER
10
136.4155
20
296.8265
30
0.0
0
VERTEX
8
CUT_OUTER
10
135.9665
20
296.5525
30
0.0
0
VERTEX
8
CUT_OUTER
10
135.6165
20
296.4775
30
0.0
0
VERTEX
8
CUT_OUTER
10
135.5625
20
296.8955
30
0.0
0
VERTEX
8
CUT_OUTER
10
136.3075
20
298.9715
30
0.0
0
VERTEX
8
CUT_OUTER
10
139.2565
20
305.1965
30
0.0
0
VERTEX
8
CUT_OUTER
10
139.2465
20
305.4515
30
0.0
0
VERTEX
8
CUT_OUTER
10
139.0525
20
305.6605
30
0.0
0
VERTEX
8
CUT_OUTER
10
139.0745
20
306.5405
30
0.0
0
VERTEX
8
CUT_OUTER
10
139.5785
20
306.8825
30
0.0
0
VERTEX
8
CUT_OUTER
10
139.9275
20
307.2475
30
0.0
0
VERTEX
8
CUT_OUTER
10
140.1885
20
307.6985
30
0.0
0
VERTEX
8
CUT_OUTER
10
140.3545
20
308.2055
30
0.0
0
VERTEX
8
CUT_OUTER
10
140.4295
20
308.6925
30
0.0
0
VERTEX
8
CUT_OUTER
10
140.4165
20
309.1535
30
0.0
0
VERTEX
8
CUT_OUTER
10
140.3055
20
309.6195
30
0.0
0
VERTEX
8
CUT_OUTER
10
140.1395
20
309.9845
30
0.0
0
VERTEX
8
CUT_OUTER
10
139.9185
20
310.2555
30
0.0
0
VERTEX
8
CUT_OUTER
10
139.6625
20
310.4185
30
0.0
0
VERTEX
8
CUT_OUTER
10
139.3085
20
310.5155
30
0.0
0
VERTEX
8
CUT_OUTER
10
138.9525
20
310.5065
30
0.0
0
VERTEX
8
CUT_OUTER
10
138.2625
20
310.1935
30
0.0
0
VERTEX
8
CUT_OUTER
10
137.9785
20
309.9355
30
0.0
0
VERTEX
8
CUT_OUTER
10
137.8035
20
309.6755
30
0.0
0
VERTEX
8
CUT_OUTER
10
137.6835
20
309.0035
30
0.0
0
VERTEX
8
CUT_OUTER
10
137.7975
20
307.9155
30
0.0
0
VERTEX
8
CUT_OUTER
10
137.3095
20
307.9225
30
0.0
0
VERTEX
8
CUT_OUTER
10
136.8745
20
307.7915
30
0.0
0
VERTEX
8
CUT_OUTER
10
136.4735
20
307.5205
30
0.0
0
VERTEX
8
CUT_OUTER
10
136.1915
20
307.1645
30
0.0
0
VERTEX
8
CUT_OUTER
10
135.9965
20
306.5915
30
0.0
0
VERTEX
8
CUT_OUTER
10
135.9815
20
305.4855
30
0.0
0
VERTEX
8
CUT_OUTER
10
135.5765
20
304.9555
30
0.0
0
VERTEX
8
CUT_OUTER
10
134.8335
20
303.5505
30
0.0
0
VERTEX
8
CUT_OUTER
10
133.6615
20
301.0705
30
0.0
0
VERTEX
8
CUT_OUTER
10
132.9475
20
299.2785
30
0.0
0
VERTEX
8
CUT_OUTER
10
132.1095
20
298.0095
30
0.0
0
VERTEX
8
CUT_OUTER
10
131.3645
20
297.0625
30
0.0
0
VERTEX
8
CUT_OUTER
10
130.8995
20
296.6265
30
0.0
0
VERTEX
8
CUT_OUTER
10
130.5205
20
296.5105
30
0.0
0
VERTEX
8
CUT_OUTER
10
130.5225
20
297.0755
30
0.0
0
VERTEX
8
CUT_OUTER
10
130.7495
20
297.9365
30
0.0
0
VERTEX
8
CUT_OUTER
10
132.1285
20
301.2595
30
0.0
0
VERTEX
8
CUT_OUTER
10
132.5825
20
302.5555
30
0.0
0
VERTEX
8
CUT_OUTER
10
132.7615
20
303.3405
30
0.0
0
VERTEX
8
CUT_OUTER
10
132.8015
20
304.0815
30
0.0
0
VERTEX
8
CUT_OUTER
10
132.6165
20
304.7105
30
0.0
0
VERTEX
8
CUT_OUTER
10
132.1555
20
305.2885
30
0.0
0
VERTEX
8
CUT_OUTER
10
131.5975
20
305.6625
30
0.0
0
VERTEX
8
CUT_OUTER
10
130.8395
20
305.8725
30
0.0
0
VERTEX
8
CUT_OUTER
10
130.0265
20
305.8575
30
0.0
0
VERTEX
8
CUT_OUTER
10
129.2585
20
305.6665
30
0.0
0
VERTEX
8
CUT_OUTER
10
128.4925
20
305.2735
30
0.0
0
VERTEX
8
CUT_OUTER
10
127.7725
20
304.6985
30
0.0
0
VERTEX
8
CUT_OUTER
10
130.6345
20
311.2865
30
0.0
0
VERTEX
8
CUT_OUTER
10
131.0345
20
312.3805
30
0.0
0
VERTEX
8
CUT_OUTER
10
131.0025
20
312.6255
30
0.0
0
VERTEX
8
CUT_OUTER
10
130.8295
20
312.7715
30
0.0
0
VERTEX
8
CUT_OUTER
10
130.0675
20
312.9405
30
0.0
0
VERTEX
8
CUT_OUTER
10
129.4855
20
312.9555
30
0.0
0
VERTEX
8
CUT_OUTER
10
128.9835
20
312.8455
30
0.0
0
VERTEX
8
CUT_OUTER
10
128.4695
20
312.5945
30
0.0
0
VERTEX
8
CUT_OUTER
10
127.9955
20
312.2165
30
0.0
0
VERTEX
8
CUT_OUTER
10
127.6725
20
311.7875
30
0.0
0
VERTEX
8
CUT_OUTER
10
125.3345
20
306.7455
30
0.0
0
VERTEX
8
CUT_OUTER
10
121.9785
20
298.7935
30
0.0
0
VERTEX
8
CUT_OUTER
10
121.1475
20
299.1115
30
0.0
0
VERTEX
8
CUT_OUTER
10
120.9635
20
299.9385
30
0.0
0
VERTEX
8
CUT_OUTER
10
120.6405
20
300.7445
30
0.0
0
VERTEX
8
CUT_OUTER
10
119.2235
20
303.0045
30
0.0
0
VERTEX
8
CUT_OUTER
10
119.0785
20
303.4785
30
0.0
0
VERTEX
8
CUT_OUTER
10
119.0475
20
304.0125
30
0.0
0
VERTEX
8
CUT_OUTER
10
119.1985
20
304.6105
30
0.0
0
VERTEX
8
CUT_OUTER
10
119.6305
20
305.1375
30
0.0
0
VERTEX
8
CUT_OUTER
10
120.1795
20
305.4195
30
0.0
0
VERTEX
8
CUT_OUTER
10
120.5265
20
305.4585
30
0.0
0
VERTEX
8
CUT_OUTER
10
120.7185
20
305.4095
30
0.0
0
VERTEX
8
CUT_OUTER
10
120.8545
20
305.2295
30
0.0
0
VERTEX
8
CUT_OUTER
10
120.0445
20
303.7885
30
0.0
0
VERTEX
8
CUT_OUTER
10
119.9565
20
303.4675
30
0.0
0
VERTEX
8
CUT_OUTER
10
119.9735
20
303.1395
30
0.0
0
VERTEX
8
CUT_OUTER
10
120.1645
20
302.6875
30
0.0
0
VERTEX
8
CUT_OUTER
10
120.4845
20
302.3655
30
0.0
0
VERTEX
8
CUT_OUTER
10
120.9025
20
302.2585
30
0.0
0
VERTEX
8
CUT_OUTER
10
121.4025
20
302.3355
30
0.0
0
VERTEX
8
CUT_OUTER
10
121.9055
20
302.6605
30
0.0
0
VERTEX
8
CUT_OUTER
10
122.2035
20
303.1845
30
0.0
0
VERTEX
8
CUT_OUTER
10
122.3945
20
304.3445
30
0.0
0
VERTEX
8
CUT_OUTER
10
122.3015
20
305.1895
30
0.0
0
VERTEX
8
CUT_OUTER
10
121.9135
20
305.9835
30
0.0
0
VERTEX
8
CUT_OUTER
10
121.6315
20
306.3085
30
0.0
0
VERTEX
8
CUT_OUTER
10
121.3445
20
306.5255
30
0.0
0
VERTEX
8
CUT_OUTER
10
121.0075
20
306.6845
30
0.0
0
VERTEX
8
CUT_OUTER
10
120.5855
20
306.7835
30
0.0
0
VERTEX
8
CUT_OUTER
10
119.7245
20
306.7505
30
0.0
0
VERTEX
8
CUT_OUTER
10
119.0595
20
306.5535
30
0.0
0
VERTEX
8
CUT_OUTER
10
118.3535
20
306.1985
30
0.0
0
VERTEX
8
CUT_OUTER
10
117.6905
20
305.7175
30
0.0
0
VERTEX
8
CUT_OUTER
10
117.1815
20
305.2035
30
0.0
0
VERTEX
8
CUT_OUTER
10
116.7685
20
304.6095
30
0.0
0
VERTEX
8
CUT_OUTER
10
116.4865
20
303.9925
30
0.0
0
VERTEX
8
CUT_OUTER
10
116.3385
20
303.3335
30
0.0
0
VERTEX
8
CUT_OUTER
10
116.3155
20
302.6045
30
0.0
0
VERTEX
8
CUT_OUTER
10
115.8465
20
302.8675
30
0.0
0
VERTEX
8
CUT_OUTER
10
115.2705
20
302.8855
30
0.0
0
VERTEX
8
CUT_OUTER
10
114.7085
20
302.6675
30
0.0
0
VERTEX
8
CUT_OUTER
10
114.1725
20
302.2185
30
0.0
0
VERTEX
8
CUT_OUTER
10
113.6465
20
301.5195
30
0.0
0
VERTEX
8
CUT_OUTER
10
113.1965
20
300.6085
30
0.0
0
VERTEX
8
CUT_OUTER
10
112.8835
20
299.5955
30
0.0
0
VERTEX
8
CUT_OUTER
10
112.7345
20
298.6345
30
0.0
0
VERTEX
8
CUT_OUTER
10
111.9055
20
297.7175
30
0.0
0
VERTEX
8
CUT_OUTER
10
111.0555
20
296.9385
30
0.0
0
VERTEX
8
CUT_OUTER
10
110.5375
20
296.5865
30
0.0
0
VERTEX
8
CUT_OUTER
10
110.1125
20
296.4795
30
0.0
0
VERTEX
8
CUT_OUTER
10
110.0605
20
296.8955
30
0.0
0
VERTEX
8
CUT_OUTER
10
110.8065
20
298.9715
30
0.0
0
VERTEX
8
CUT_OUTER
10
113.7555
20
305.1965
30
0.0
0
VERTEX
8
CUT_OUTER
10
113.7455
20
305.4515
30
0.0
0
VERTEX
8
CUT_OUTER
10
113.5515
20
305.6605
30
0.0
0
VERTEX
8
CUT_OUTER
10
113.5725
20
306.5405
30
0.0
0
VERTEX
8
CUT_OUTER
10
114.0705
20
306.8765
30
0.0
0
VERTEX
8
CUT_OUTER
10
114.3915
20
307.2035
30
0.0
0
VERTEX
8
CUT_OUTER
10
114.6625
20
307.6455
30
0.0
0
VERTEX
8
CUT_OUTER
10
114.8515
20
308.2005
30
0.0
0
VERTEX
8
CUT_OUTER
10
114.9205
20
309.1035
30
0.0
0
VERTEX
8
CUT_OUTER
10
114.8225
20
309.5635
30
0.0
0
VERTEX
8
CUT_OUTER
10
114.6645
20
309.9375
30
0.0
0
VERTEX
8
CUT_OUTER
10
114.4545
20
310.2205
30
0.0
0
VERTEX
8
CUT_OUTER
10
114.2075
20
310.3975
30
0.0
0
VERTEX
8
CUT_OUTER
10
113.8765
20
310.5045
30
0.0
0
VERTEX
8
CUT_OUTER
10
113.5295
20
310.5175
30
0.0
0
VERTEX
8
CUT_OUTER
10
113.1815
20
310.4255
30
0.0
0
VERTEX
8
CUT_OUTER
10
112.8255
20
310.2385
30
0.0
0
VERTEX
8
CUT_OUTER
10
112.5295
20
309.9925
30
0.0
0
VERTEX
8
CUT_OUTER
10
112.3095
20
309.6915
30
0.0
0
VERTEX
8
CUT_OUTER
10
112.1815
20
309.0035
30
0.0
0
VERTEX
8
CUT_OUTER
10
112.2955
20
307.9155
30
0.0
0
VERTEX
8
CUT_OUTER
10
111.8085
20
307.9225
30
0.0
0
VERTEX
8
CUT_OUTER
10
111.3725
20
307.7915
30
0.0
0
VERTEX
8
CUT_OUTER
10
110.9725
20
307.5205
30
0.0
0
VERTEX
8
CUT_OUTER
10
110.6895
20
307.1645
30
0.0
0
VERTEX
8
CUT_OUTER
10
110.4955
20
306.5915
30
0.0
0
VERTEX
8
CUT_OUTER
10
110.4795
20
305.4855
30
0.0
0
VERTEX
8
CUT_OUTER
10
110.0755
20
304.9555
30
0.0
0
VERTEX
8
CUT_OUTER
10
109.3325
20
303.5505
30
0.0
0
VERTEX
8
CUT_OUTER
10
108.1275
20
300.9965
30
0.0
0
VERTEX
8
CUT_OUTER
10
107.4045
20
299.1575
30
0.0
0
VERTEX
8
CUT_OUTER
10
106.2275
20
297.4595
30
0.0
0
VERTEX
8
CUT_OUTER
10
105.7405
20
296.8915
30
0.0
0
VERTEX
8
CUT_OUTER
10
105.3725
20
296.5895
30
0.0
0
VERTEX
8
CUT_OUTER
10
105.1595
20
296.5095
30
0.0
0
VERTEX
8
CUT_OUTER
10
105.0425
20
296.5435
30
0.0
0
VERTEX
8
CUT_OUTER
10
105.0455
20
297.0115
30
0.0
0
VERTEX
8
CUT_OUTER
10
105.1795
20
297.6075
30
0.0
0
VERTEX
8
CUT_OUTER
10
105.4835
20
298.4755
30
0.0
0
VERTEX
8
CUT_OUTER
10
106.8065
20
301.6405
30
0.0
0
VERTEX
8
CUT_OUTER
10
107.1465
20
302.6635
30
0.0
0
VERTEX
8
CUT_OUTER
10
107.2935
20
303.3405
30
0.0
0
VERTEX
8
CUT_OUTER
10
107.3375
20
304.0225
30
0.0
0
VERTEX
8
CUT_OUTER
10
107.2655
20
304.4375
30
0.0
0
VERTEX
8
CUT_OUTER
10
107.0245
20
304.9105
30
0.0
0
VERTEX
8
CUT_OUTER
10
106.6415
20
305.3295
30
0.0
0
VERTEX
8
CUT_OUTER
10
106.1835
20
305.6365
30
0.0
0
VERTEX
8
CUT_OUTER
10
105.6265
20
305.8165
30
0.0
0
VERTEX
8
CUT_OUTER
10
105.0395
20
305.8375
30
0.0
0
VERTEX
8
CUT_OUTER
10
104.4575
20
305.7035
30
0.0
0
VERTEX
8
CUT_OUTER
10
103.8005
20
305.3825
30
0.0
0
VERTEX
8
CUT_OUTER
10
103.1435
20
304.9405
30
0.0
0
VERTEX
8
CUT_OUTER
10
102.3955
20
304.2995
30
0.0
0
VERTEX
8
CUT_OUTER
10
101.5855
20
303.4885
30
0.0
0
VERTEX
8
CUT_OUTER
10
101.5435
20
304.5475
30
0.0
0
VERTEX
8
CUT_OUTER
10
101.4125
20
304.9645
30
0.0
0
VERTEX
8
CUT_OUTER
10
101.2115
20
305.2985
30
0.0
0
VERTEX
8
CUT_OUTER
10
100.9415
20
305.5575
30
0.0
0
VERTEX
8
CUT_OUTER
10
100.6075
20
305.7445
30
0.0
0
VERTEX
8
CUT_OUTER
10
99.6475
20
305.9545
30
0.0
0
VERTEX
8
CUT_OUTER
10
98.5845
20
305.7335
30
0.0
0
VERTEX
8
CUT_OUTER
10
97.7555
20
305.3435
30
0.0
0
VERTEX
8
CUT_OUTER
10
96.8045
20
304.6475
30
0.0
0
VERTEX
8
CUT_OUTER
10
95.8625
20
303.6795
30
0.0
0
VERTEX
8
CUT_OUTER
10
96.4595
20
305.0835
30
0.0
0
VERTEX
8
CUT_OUTER
10
96.5235
20
305.3185
30
0.0
0
VERTEX
8
CUT_OUTER
10
96.4915
20
305.4915
30
0.0
0
VERTEX
8
CUT_OUTER
10
96.3405
20
305.6295
30
0.0
0
VERTEX
8
CUT_OUTER
10
95.8085
20
305.7705
30
0.0
0
VERTEX
8
CUT_OUTER
10
95.2535
20
305.8475
30
0.0
0
VERTEX
8
CUT_OUTER
10
94.7395
20
305.8415
30
0.0
0
VERTEX
8
CUT_OUTER
10
94.3095
20
305.7595
30
0.0
0
VERTEX
8
CUT_OUTER
10
93.9375
20
305.5745
30
0.0
0
VERTEX
8
CUT_OUTER
10
93.6265
20
305.3015
30
0.0
0
VERTEX
8
CUT_OUTER
10
93.3105
20
304.8715
30
0.0
0
VERTEX
8
CUT_OUTER
10
91.0735
20
299.6745
30
0.0
0
VERTEX
8
CUT_OUTER
10
90.2425
20
298.2525
30
0.0
0
VERTEX
8
CUT_OUTER
10
89.3065
20
296.9145
30
0.0
0
VERTEX
8
CUT_OUTER
10
88.3835
20
295.8455
30
0.0
0
VERTEX
8
CUT_OUTER
10
87.5575
20
295.1085
30
0.0
0
VERTEX
8
CUT_OUTER
10
86.8455
20
294.7855
30
0.0
0
VERTEX
8
CUT_OUTER
10
86.4175
20
294.7385
30
0.0
0
VERTEX
8
CUT_OUTER
10
86.1655
20
294.7765
30
0.0
0
VERTEX
8
CUT_OUTER
10
86.0005
20
294.8815
30
0.0
0
VERTEX
8
CUT_OUTER
10
85.8685
20
295.0825
30
0.0
0
VERTEX
8
CUT_OUTER
10
85.7235
20
295.7395
30
0.0
0
VERTEX
8
CUT_OUTER
10
85.7765
20
296.7505
30
0.0
0
VERTEX
8
CUT_OUTER
10
86.0035
20
297.8415
30
0.0
0
VERTEX
8
CUT_OUTER
10
86.3815
20
298.9735
30
0.0
0
VERTEX
8
CUT_OUTER
10
86.8815
20
300.2015
30
0.0
0
VERTEX
8
CUT_OUTER
10
88.7945
20
304.1385
30
0.0
0
VERTEX
8
CUT_OUTER
10
90.5495
20
304.2415
30
0.0
0
VERTEX
8
CUT_OUTER
10
91.8745
20
304.4635
30
0.0
0
VERTEX
8
CUT_OUTER
10
92.5495
20
304.7645
30
0.0
0
VERTEX
8
CUT_OUTER
10
93.0905
20
305.3285
30
0.0
0
VERTEX
8
CUT_OUTER
10
93.0545
20
305.5865
30
0.0
0
VERTEX
8
CUT_OUTER
10
92.8005
20
305.7195
30
0.0
0
VERTEX
8
CUT_OUTER
10
91.2755
20
305.4815
30
0.0
0
VERTEX
8
CUT_OUTER
10
89.3375
20
305.3855
30
0.0
0
VERTEX
8
CUT_OUTER
10
95.3125
20
315.7255
30
0.0
0
VERTEX
8
CUT_OUTER
10
95.2945
20
316.0105
30
0.0
0
VERTEX
8
CUT_OUTER
10
94.9755
20
316.2675
30
0.0
0
VERTEX
8
CUT_OUTER
10
94.5095
20
316.4695
30
0.0
0
VERTEX
8
CUT_OUTER
10
93.8775
20
316.5835
30
0.0
0
VERTEX
8
CUT_OUTER
10
92.8955
20
316.4975
30
0.0
0
VERTEX
8
CUT_OUTER
10
91.8475
20
316.1035
30
0.0
0
VERTEX
8
CUT_OUTER
10
90.5235
20
315.3085
30
0.0
0
VERTEX
8
CUT_OUTER
10
89.3285
20
314.3315
30
0.0
0
VERTEX
8
CUT_OUTER
10
88.2845
20
313.2585
30
0.0
0
VERTEX
8
CUT_OUTER
10
86.8855
20
311.5915
30
0.0
0
VERTEX
8
CUT_OUTER
10
81.8755
20
305.2795
30
0.0
0
VERTEX
8
CUT_OUTER
10
80.0075
20
305.2655
30
0.0
0
VERTEX
8
CUT_OUTER
10
78.7525
20
305.1355
30
0.0
0
VERTEX
8
CUT_OUTER
10
77.7555
20
304.8565
30
0.0
0
VERTEX
8
CUT_OUTER
10
77.0625
20
304.4445
30
0.0
0
VERTEX
8
CUT_OUTER
10
76.7785
20
304.0645
30
0.0
0
VERTEX
8
CUT_OUTER
10
76.6325
20
303.5895
30
0.0
0
VERTEX
8
CUT_OUTER
10
76.6685
20
303.3285
30
0.0
0
VERTEX
8
CUT_OUTER
10
76.8845
20
303.1915
30
0.0
0
VERTEX
8
CUT_OUTER
10
77.0565
20
303.2215
30
0.0
0
VERTEX
8
CUT_OUTER
10
77.5575
20
303.5885
30
0.0
0
VERTEX
8
CUT_OUTER
10
78.0315
20
303.8045
30
0.0
0
VERTEX
8
CUT_OUTER
10
80.9425
20
304.0415
30
0.0
0
VERTEX
8
CUT_OUTER
10
78.8415
20
301.5925
30
0.0
0
VERTEX
8
CUT_OUTER
10
77.2835
20
299.9205
30
0.0
0
VERTEX
8
CUT_OUTER
10
75.8125
20
298.5625
30
0.0
0
VERTEX
8
CUT_OUTER
10
74.2935
20
297.3835
30
0.0
0
VERTEX
8
CUT_OUTER
10
72.8585
20
296.4935
30
0.0
0
VERTEX
8
CUT_OUTER
10
71.5205
20
295.8425
30
0.0
0
VERTEX
8
CUT_OUTER
10
70.2905
20
295.4275
30
0.0
0
VERTEX
8
CUT_OUTER
10
69.1625
20
295.2075
30
0.0
0
VERTEX
8
CUT_OUTER
10
67.6605
20
295.1205
30
0.0
0
VERTEX
8
CUT_OUTER
10
66.1215
20
295.2265
30
0.0
0
VERTEX
8
CUT_OUTER
10
64.9215
20
295.4775
30
0.0
0
VERTEX
8
CUT_OUTER
10
63.8115
20
295.9145
30
0.0
0
VERTEX
8
CUT_OUTER
10
63.2095
20
296.2735
30
0.0
0
VERTEX
8
CUT_OUTER
10
62.6885
20
296.6955
30
0.0
0
VERTEX
8
CUT_OUTER
10
62.2405
20
297.1795
30
0.0
0
VERTEX
8
CUT_OUTER
10
61.8665
20
297.7215
30
0.0
0
VERTEX
8
CUT_OUTER
10
61.5645
20
298.3215
30
0.0
0
VERTEX
8
CUT_OUTER
10
61.3335
20
298.9825
30
0.0
0
VERTEX
8
CUT_OUTER
10
61.1565
20
299.8035
30
0.0
0
VERTEX
8
CUT_OUTER
10
61.0775
20
300.5765
30
0.0
0
VERTEX
8
CUT_OUTER
10
61.1455
20
302.2845
30
0.0
0
VERTEX
8
CUT_OUTER
10
61.5255
20
304.1315
30
0.0
0
VERTEX
8
CUT_OUTER
10
62.2075
20
305.9725
30
0.0
0
VERTEX
8
CUT_OUTER
10
63.1405
20
307.6725
30
0.0
0
VERTEX
8
CUT_OUTER
10
64.3075
20
309.1975
30
0.0
0
VERTEX
8
CUT_OUTER
10
65.5435
20
310.3875
30
0.0
0
VERTEX
8
CUT_OUTER
10
67.0805
20
311.4565
30
0.0
0
VERTEX
8
CUT_OUTER
10
68.4495
20
312.0945
30
0.0
0
VERTEX
8
CUT_OUTER
10
69.2455
20
312.3275
30
0.0
0
VERTEX
8
CUT_OUTER
10
70.0695
20
312.4745
30
0.0
0
VERTEX
8
CUT_OUTER
10
71.7075
20
312.5155
30
0.0
0
VERTEX
8
CUT_OUTER
10
72.4025
20
312.4295
30
0.0
0
VERTEX
8
CUT_OUTER
10
73.1375
20
312.2415
30
0.0
0
VERTEX
8
CUT_OUTER
10
73.7665
20
311.9645
30
0.0
0
VERTEX
8
CUT_OUTER
10
74.2015
20
311.6715
30
0.0
0
VERTEX
8
CUT_OUTER
10
74.6425
20
311.1285
30
0.0
0
VERTEX
8
CUT_OUTER
10
74.8845
20
310.5025
30
0.0
0
VERTEX
8
CUT_OUTER
10
74.9945
20
309.7135
30
0.0
0
VERTEX
8
CUT_OUTER
10
74.9625
20
308.7755
30
0.0
0
VERTEX
8
CUT_OUTER
10
74.7375
20
307.7565
30
0.0
0
VERTEX
8
CUT_OUTER
10
74.3775
20
306.7775
30
0.0
0
VERTEX
8
CUT_OUTER
10
73.8605
20
305.8265
30
0.0
0
VERTEX
8
CUT_OUTER
10
73.3165
20
305.0895
30
0.0
0
VERTEX
8
CUT_OUTER
10
72.5165
20
304.3315
30
0.0
0
VERTEX
8
CUT_OUTER
10
71.6605
20
303.7985
30
0.0
0
VERTEX
8
CUT_OUTER
10
70.7745
20
303.5385
30
0.0
0
VERTEX
8
CUT_OUTER
10
69.7945
20
303.4965
30
0.0
0
VERTEX
8
CUT_OUTER
10
69.3755
20
303.5725
30
0.0
0
VERTEX
8
CUT_OUTER
10
69.0575
20
303.7075
30
0.0
0
VERTEX
8
CUT_OUTER
10
68.8245
20
303.9015
30
0.0
0
VERTEX
8
CUT_OUTER
10
68.5955
20
304.2115
30
0.0
0
VERTEX
8
CUT_OUTER
10
68.4835
20
304.4855
30
0.0
0
VERTEX
8
CUT_OUTER
10
68.4565
20
304.7495
30
0.0
0
VERTEX
8
CUT_OUTER
10
68.5405
20
305.1175
30
0.0
0
VERTEX
8
CUT_OUTER
10
68.7305
20
305.4585
30
0.0
0
SEQEND
8
CUT_OUTER
0
POLYLINE
8
CUT_INNER
66
1
70
1
10
0.0
20
0.0
30
0.0
0
VERTEX
8
CUT_INNER
10
116.4225
20
301.9595
30
0.0
0
VERTEX
8
CUT_INNER
10
115.7355
20
301.1205
30
0.0
0
VERTEX
8
CUT_INNER
10
115.1195
20
300.0895
30
0.0
0
VERTEX
8
CUT_INNER
10
114.7735
20
299.1785
30
0.0
0
VERTEX
8
CUT_INNER
10
114.5945
20
298.2405
30
0.0
0
VERTEX
8
CUT_INNER
10
114.5495
20
297.3835
30
0.0
0
VERTEX
8
CUT_INNER
10
114.7435
20
296.6715
30
0.0
0
VERTEX
8
CUT_INNER
10
115.1275
20
296.0755
30
0.0
0
VERTEX
8
CUT_INNER
10
115.3725
20
295.9175
30
0.0
0
VERTEX
8
CUT_INNER
10
115.6785
20
295.8385
30
0.0
0
VERTEX
8
CUT_INNER
10
116.5775
20
295.8945
30
0.0
0
VERTEX
8
CUT_INNER
10
117.3035
20
296.1725
30
0.0
0
VERTEX
8
CUT_INNER
10
117.7825
20
296.6945
30
0.0
0
VERTEX
8
CUT_INNER
10
117.9955
20
297.3235
30
0.0
0
VERTEX
8
CUT_INNER
10
117.9875
20
297.9365
30
0.0
0
VERTEX
8
CUT_INNER
10
117.8285
20
298.6055
30
0.0
0
SEQEND
8
CUT_INNER
0
POLYLINE
8
CUT_INNER
66
1
70
1
10
0.0
20
0.0
30
0.0
0
VERTEX
8
CUT_INNER
10
83.7645
20
305.3555
30
0.0
0
VERTEX
8
CUT_INNER
10
85.8125
20
305.5185
30
0.0
0
VERTEX
8
CUT_INNER
10
91.1915
20
314.2015
30
0.0
0
VERTEX
8
CUT_INNER
10
90.2985
20
313.5595
30
0.0
0
VERTEX
8
CUT_INNER
10
89.4045
20
312.6515
30
0.0
0
SEQEND
8
CUT_INNER
0
POLYLINE
8
CUT_OUTER
66
1
70
1
10
0.0
20
0.0
30
0.0
0
VERTEX
8
CUT_OUTER
10
78.9920
20
328.6375
30
0.0
0
VERTEX
8
CUT_OUTER
10
79.1120
20
328.4755
30
0.0
0
VERTEX
8
CUT_OUTER
10
79.3370
20
328.4305
30
0.0
0
VERTEX
8
CUT_OUTER
10
81.1950
20
329.3085
30
0.0
0
VERTEX
8
CUT_OUTER
10
81.7140
20
329.6555
30
0.0
0
VERTEX
8
CUT_OUTER
10
82.1890
20
330.0795
30
0.0
0
VERTEX
8
CUT_OUTER
10
82.6200
20
330.5805
30
0.0
0
VERTEX
8
CUT_OUTER
10
84.1260
20
332.6455
30
0.0
0
VERTEX
8
CUT_OUTER
10
89.0590
20
339.9505
30
0.0
0
VERTEX
8
CUT_OUTER
10
90.7450
20
342.1805
30
0.0
0
VERTEX
8
CUT_OUTER
10
92.1550
20
343.7735
30
0.0
0
VERTEX
8
CUT_OUTER
10
93.5430
20
345.1015
30
0.0
0
VERTEX
8
CUT_OUTER
10
94.8840
20
346.1825
30
0.0
0
VERTEX
8
CUT_OUTER
10
96.2410
20
347.0355
30
0.0
0
VERTEX
8
CUT_OUTER
10
94.3610
20
344.5165
30
0.0
0
VERTEX
8
CUT_OUTER
10
92.8280
20
342.0895
30
0.0
0
VERTEX
8
CUT_OUTER
10
91.1620
20
339.0025
30
0.0
0
VERTEX
8
CUT_OUTER
10
89.6960
20
335.8435
30
0.0
0
VERTEX
8
CUT_OUTER
10
89.0320
20
334.1285
30
0.0
0
VERTEX
8
CUT_OUTER
10
88.6330
20
332.4425
30
0.0
0
VERTEX
8
CUT_OUTER
10
88.5140
20
330.9235
30
0.0
0
VERTEX
8
CUT_OUTER
10
88.5680
20
330.1885
30
0.0
0
VERTEX
8
CUT_OUTER
10
88.7040
20
329.5195
30
0.0
0
VERTEX
8
CUT_OUTER
10
89.0690
20
328.6465
30
0.0
0
VERTEX
8
CUT_OUTER
10
89.5700
20
328.0945
30
0.0
0
VERTEX
8
CUT_OUTER
10
90.3280
20
327.7285
30
0.0
0
VERTEX
8
CUT_OUTER
10
91.2930
20
327.6105
30
0.0
0
VERTEX
8
CUT_OUTER
10
92.5390
20
327.7545
30
0.0
0
VERTEX
8
CUT_OUTER
10
93.6660
20
328.1835
30
0.0
0
VERTEX
8
CUT_OUTER
10
94.8580
20
329.0075
30
0.0
0
VERTEX
8
CUT_OUTER
10
95.8910
20
330.0155
30
0.0
0
VERTEX
8
CUT_OUTER
10
96.1960
20
329.3795
30
0.0
0
VERTEX
8
CUT_OUTER
10
96.6860
20
328.8355
30
0.0
0
VERTEX
8
CUT_OUTER
10
97.2860
20
328.4925
30
0.0
0
VERTEX
8
CUT_OUTER
10
97.9880
20
328.3585
30
0.0
0
VERTEX
8
CUT_OUTER
10
98.9460
20
328.4645
30
0.0
0
VERTEX
8
CUT_OUTER
10
100.0080
20
328.8725
30
0.0
0
VERTEX
8
CUT_OUTER
10
100.9730
20
329.4965
30
0.0
0
VERTEX
8
CUT_OUTER
10
101.9130
20
330.3795
30
0.0
0
VERTEX
8
CUT_OUTER
10
102.1430
20
329.6365
30
0.0
0
VERTEX
8
CUT_OUTER
10
102.6550
20
328.9315
30
0.0
0
VERTEX
8
CUT_OUTER
10
103.2470
20
328.5215
30
0.0
0
VERTEX
8
CUT_OUTER
10
103.9740
20
328.3335
30
0.0
0
VERTEX
8
CUT_OUTER
10
104.8620
20
328.3845
30
0.0
0
VERTEX
8
CUT_OUTER
10
105.6360
20
328.6635
30
0.0
0
VERTEX
8
CUT_OUTER
10
106.4690
20
329.2435
30
0.0
0
VERTEX
8
CUT_OUTER
10
107.2930
20
330.0605
30
0.0
0
VERTEX
8
CUT_OUTER
10
107.5460
20
329.4065
30
0.0
0
VERTEX
8
CUT_OUTER
10
107.9420
20
328.8455
30
0.0
0
VERTEX
8
CUT_OUTER
10
108.4090
20
328.5025
30
0.0
0
VERTEX
8
CUT_OUTER
10
108.9800
20
328.3365
30
0.0
0
VERTEX
8
CUT_OUTER
10
109.6600
20
328.3635
30
0.0
0
VERTEX
8
CUT_OUTER
10
110.4080
20
328.5725
30
0.0
0
VERTEX
8
CUT_OUTER
10
111.2120
20
328.9565
30
0.0
0
VERTEX
8
CUT_OUTER
10
112.0230
20
329.5025
30
0.0
0
VERTEX
8
CUT_OUTER
10
110.7550
20
326.8195
30
0.0
0
VERTEX
8
CUT_OUTER
10
108.9370
20
327.0675
30
0.0
0
VERTEX
8
CUT_OUTER
10
107.6550
20
327.1555
30
0.0
0
VERTEX
8
CUT_OUTER
10
106.5300
20
327.1355
30
0.0
0
VERTEX
8
CUT_OUTER
10
105.2410
20
326.9795
30
0.0
0
VERTEX
8
CUT_OUTER
10
104.1390
20
326.7205
30
0.0
0
VERTEX
8
CUT_OUTER
10
103.1040
20
326.3265
30
0.0
0
VERTEX
8
CUT_OUTER
10
102.3170
20
325.8715
30
0.0
0
VERTEX
8
CUT_OUTER
10
101.6510
20
325.3065
30
0.0
0
VERTEX
8
CUT_OUTER
10
101.2450
20
324.7115
30
0.0
0
VERTEX
8
CUT_OUTER
10
101.0570
20
324.0885
30
0.0
0
VERTEX
8
CUT_OUTER
10
101.0490
20
323.3515
30
0.0
0
VERTEX
8
CUT_OUTER
10
101.2670
20
322.6375
30
0.0
0
VERTEX
8
CUT_OUTER
10
101.6640
20
322.0395
30
0.0
0
VERTEX
8
CUT_OUTER
10
102.2130
20
321.5345
30
0.0
0
VERTEX
8
CUT_OUTER
10
102.9380
20
321.1045
30
0.0
0
VERTEX
8
CUT_OUTER
10
103.8490
20
320.7615
30
0.0
0
VERTEX
8
CUT_OUTER
10
104.8870
20
320.5835
30
0.0
0
VERTEX
8
CUT_OUTER
10
106.1270
20
320.6075
30
0.0
0
VERTEX
8
CUT_OUTER
10
107.4550
20
320.8355
30
0.0
0
VERTEX
8
CUT_OUTER
10
108.7150
20
321.2405
30
0.0
0
VERTEX
8
CUT_OUTER
10
109.8730
20
321.7955
30
0.0
0
VERTEX
8
CUT_OUTER
10
110.9850
20
322.5345
30
0.0
0
VERTEX
8
CUT_OUTER
10
111.9630
20
323.3965
30
0.0
0
VERTEX
8
CUT_OUTER
10
112.8050
20
324.3715
30
0.0
0
VERTEX
8
CUT_OUTER
10
115.4640
20
323.7255
30
0.0
0
VERTEX
8
CUT_OUTER
10
119.3310
20
322.5725
30
0.0
0
VERTEX
8
CUT_OUTER
10
120.5390
20
322.3385
30
0.0
0
VERTEX
8
CUT_OUTER
10
122.8370
20
322.0395
30
0.0
0
VERTEX
8
CUT_OUTER
10
123.9070
20
322.0615
30
0.0
0
VERTEX
8
CUT_OUTER
10
124.9910
20
322.2835
30
0.0
0
VERTEX
8
CUT_OUTER
10
125.9180
20
322.6825
30
0.0
0
VERTEX
8
CUT_OUTER
10
126.5800
20
323.1975
30
0.0
0
VERTEX
8
CUT_OUTER
10
126.9620
20
323.7235
30
0.0
0
VERTEX
8
CUT_OUTER
10
127.1680
20
324.3235
30
0.0
0
VERTEX
8
CUT_OUTER
10
127.1930
20
324.9735
30
0.0
0
VERTEX
8
CUT_OUTER
10
127.0090
20
325.6905
30
0.0
0
VERTEX
8
CUT_OUTER
10
126.7000
20
326.2705
30
0.0
0
VERTEX
8
CUT_OUTER
10
126.2230
20
326.7745
30
0.0
0
VERTEX
8
CUT_OUTER
10
125.5320
20
327.1905
30
0.0
0
VERTEX
8
CUT_OUTER
10
124.9100
20
327.4225
30
0.0
0
VERTEX
8
CUT_OUTER
10
124.0330
20
327.4325
30
0.0
0
VERTEX
8
CUT_OUTER
10
123.1980
20
327.1525
30
0.0
0
VERTEX
8
CUT_OUTER
10
122.7050
20
326.7185
30
0.0
0
VERTEX
8
CUT_OUTER
10
122.4320
20
326.0805
30
0.0
0
VERTEX
8
CUT_OUTER
10
122.4310
20
325.6495
30
0.0
0
VERTEX
8
CUT_OUTER
10
122.6010
20
325.2785
30
0.0
0
VERTEX
8
CUT_OUTER
10
122.9080
20
324.9775
30
0.0
0
VERTEX
8
CUT_OUTER
10
123.2960
20
324.8325
30
0.0
0
VERTEX
8
CUT_OUTER
10
123.6940
20
324.8685
30
0.0
0
VERTEX
8
CUT_OUTER
10
124.0480
20
325.0515
30
0.0
0
VERTEX
8
CUT_OUTER
10
124.2810
20
325.3135
30
0.0
0
VERTEX
8
CUT_OUTER
10
124.5410
20
325.8285
30
0.0
0
VERTEX
8
CUT_OUTER
10
124.8680
20
326.1115
30
0.0
0
VERTEX
8
CUT_OUTER
10
125.0720
20
326.1025
30
0.0
0
VERTEX
8
CUT_OUTER
10
125.3470
20
325.9885
30
0.0
0
VERTEX
8
CUT_OUTER
10
125.7260
20
325.6405
30
0.0
0
VERTEX
8
CUT_OUTER
10
125.8870
20
325.3065
30
0.0
0
VERTEX
8
CUT_OUTER
10
125.9860
20
324.7965
30
0.0
0
VERTEX
8
CUT_OUTER
10
125.9300
20
324.4605
30
0.0
0
VERTEX
8
CUT_OUTER
10
125.7990
20
324.1885
30
0.0
0
VERTEX
8
CUT_OUTER
10
125.5200
20
323.9035
30
0.0
0
VERTEX
8
CUT_OUTER
10
125.1790
20
323.6975
30
0.0
0
VERTEX
8
CUT_OUTER
10
124.6950
20
323.5205
30
0.0
0
VERTEX
8
CUT_OUTER
10
124.1360
20
323.4095
30
0.0
0
VERTEX
8
CUT_OUTER
10
123.3720
20
323.3705
30
0.0
0
VERTEX
8
CUT_OUTER
10
122.3580
20
323.4205
30
0.0
0
VERTEX
8
CUT_OUTER
10
120.3960
20
323.7425
30
0.0
0
VERTEX
8
CUT_OUTER
10
113.6810
20
325.9045
30
0.0
0
VERTEX
8
CUT_OUTER
10
116.5960
20
332.5655
30
0.0
0
VERTEX
8
CUT_OUTER
10
117.3480
20
332.2395
30
0.0
0
VERTEX
8
CUT_OUTER
10
117.2330
20
331.4725
30
0.0
0
VERTEX
8
CUT_OUTER
10
117.2250
20
330.7465
30
0.0
0
VERTEX
8
CUT_OUTER
10
117.3470
20
330.0645
30
0.0
0
VERTEX
8
CUT_OUTER
10
117.5750
20
329.5285
30
0.0
0
VERTEX
8
CUT_OUTER
10
117.8140
20
329.1805
30
0.0
0
VERTEX
8
CUT_OUTER
10
118.1580
20
328.8355
30
0.0
0
VERTEX
8
CUT_OUTER
10
118.5430
20
328.5855
30
0.0
0
VERTEX
8
CUT_OUTER
10
118.9070
20
328.4435
30
0.0
0
VERTEX
8
CUT_OUTER
10
119.3880
20
328.3625
30
0.0
0
VERTEX
8
CUT_OUTER
10
119.9350
20
328.3785
30
0.0
0
VERTEX
8
CUT_OUTER
10
120.5150
20
328.4895
30
0.0
0
VERTEX
8
CUT_OUTER
10
121.0960
20
328.6905
30
0.0
0
VERTEX
8
CUT_OUTER
10
122.2580
20
329.3565
30
0.0
0
VERTEX
8
CUT_OUTER
10
122.8060
20
329.7995
30
0.0
0
VERTEX
8
CUT_OUTER
10
123.3850
20
330.3795
30
0.0
0
VERTEX
8
CUT_OUTER
10
123.5830
20
329.7015
30
0.0
0
VERTEX
8
CUT_OUTER
10
123.9860
20
329.0855
30
0.0
0
VERTEX
8
CUT_OUTER
10
124.4740
20
328.6535
30
0.0
0
VERTEX
8
CUT_OUTER
10
125.0640
20
328.4005
30
0.0
0
VERTEX
8
CUT_OUTER
10
125.8520
20
328.3245
30
0.0
0
VERTEX
8
CUT_OUTER
10
126.6500
20
328.4695
30
0.0
0
VERTEX
8
CUT_OUTER
10
127.3340
20
328.7925
30
0.0
0
VERTEX
8
CUT_OUTER
10
128.1140
20
329.3945
30
0.0
0
VERTEX
8
CUT_OUTER
10
128.0190
20
329.1595
30
0.0
0
VERTEX
8
CUT_OUTER
10
128.0600
20
328.8595
30
0.0
0
VERTEX
8
CUT_OUTER
10
128.2160
20
328.6285
30
0.0
0
VERTEX
8
CUT_OUTER
10
128.4620
20
328.4805
30
0.0
0
VERTEX
8
CUT_OUTER
10
129.4690
20
328.3575
30
0.0
0
VERTEX
8
CUT_OUTER
10
130.6120
20
328.4665
30
0.0
0
VERTEX
8
CUT_OUTER
10
131.1710
20
328.7165
30
0.0
0
VERTEX
8
CUT_OUTER
10
131.5950
20
329.2275
30
0.0
0
VERTEX
8
CUT_OUTER
10
131.8400
20
329.7565
30
0.0
0
VERTEX
8
CUT_OUTER
10
132.5310
20
331.6935
30
0.0
0
VERTEX
8
CUT_OUTER
10
132.9670
20
332.6805
30
0.0
0
VERTEX
8
CUT_OUTER
10
133.4390
20
333.5715
30
0.0
0
VERTEX
8
CUT_OUTER
10
134.6330
20
335.4235
30
0.0
0
VERTEX
8
CUT_OUTER
10
135.5600
20
336.6165
30
0.0
0
VERTEX
8
CUT_OUTER
10
136.4310
20
337.5285
30
0.0
0
VERTEX
8
CUT_OUTER
10
136.9950
20
337.9315
30
0.0
0
VERTEX
8
CUT_OUTER
10
137.4040
20
337.9995
30
0.0
0
VERTEX
8
CUT_OUTER
10
137.4650
20
337.9365
30
0.0
0
VERTEX
8
CUT_OUTER
10
137.4480
20
337.6615
30
0.0
0
VERTEX
8
CUT_OUTER
10
137.2500
20
336.9725
30
0.0
0
VERTEX
8
CUT_OUTER
10
135.2720
20
332.4575
30
0.0
0
VERTEX
8
CUT_OUTER
10
135.0390
20
331.5635
30
0.0
0
VERTEX
8
CUT_OUTER
10
134.9610
20
330.6925
30
0.0
0
VERTEX
8
CUT_OUTER
10
135.0050
20
330.1915
30
0.0
0
VERTEX
8
CUT_OUTER
10
135.1390
20
329.7245
30
0.0
0
VERTEX
8
CUT_OUTER
10
135.3600
20
329.2915
30
0.0
0
VERTEX
8
CUT_OUTER
10
135.6750
20
328.8955
30
0.0
0
VERTEX
8
CUT_OUTER
10
136.0080
20
328.6385
30
0.0
0
VERTEX
8
CUT_OUTER
10
136.4050
20
328.4595
30
0.0
0
VERTEX
8
CUT_OUTER
10
136.8490
20
328.3695
30
0.0
0
VERTEX
8
CUT_OUTER
10
137.3490
20
328.3625
30
0.0
0
VERTEX
8
CUT_OUTER
10
138.0130
20
328.4815
30
0.0
0
VERTEX
8
CUT_OUTER
10
138.6240
20
328.7415
30
0.0
0
VERTEX
8
CUT_OUTER
10
139.3000
20
329.2265
30
0.0
0
VERTEX
8
CUT_OUTER
10
139.9660
20
329.8765
30
0.0
0
VERTEX
8
CUT_OUTER
10
140.5710
20
330.6435
30
0.0
0
VERTEX
8
CUT_OUTER
10
141.2060
20
331.6175
30
0.0
0
VERTEX
8
CUT_OUTER
10
142.4360
20
333.9035
30
0.0
0
VERTEX
8
CUT_OUTER
10
142.4680
20
334.0735
30
0.0
0
VERTEX
8
CUT_OUTER
10
142.4010
20
334.2325
30
0.0
0
VERTEX
8
CUT_OUTER
10
142.0440
20
334.6125
30
0.0
0
VERTEX
8
CUT_OUTER
10
141.8250
20
334.6615
30
0.0
0
VERTEX
8
CUT_OUTER
10
141.6260
20
334.5665
30
0.0
0
VERTEX
8
CUT_OUTER
10
140.2880
20
332.3905
30
0.0
0
VERTEX
8
CUT_OUTER
10
139.3840
20
331.0985
30
0.0
0
VERTEX
8
CUT_OUTER
10
138.6360
20
330.2575
30
0.0
0
VERTEX
8
CUT_OUTER
10
138.3660
20
330.0815
30
0.0
0
VERTEX
8
CUT_OUTER
10
138.1270
20
330.0435
30
0.0
0
VERTEX
8
CUT_OUTER
10
138.1290
20
330.6085
30
0.0
0
VERTEX
8
CUT_OUTER
10
138.3560
20
331.4695
30
0.0
0
VERTEX
8
CUT_OUTER
10
139.7780
20
334.9015
30
0.0
0
VERTEX
8
CUT_OUTER
10
140.2650
20
336.3595
30
0.0
0
VERTEX
8
CUT_OUTER
10
140.4050
20
337.4865
30
0.0
0
VERTEX
8
CUT_OUTER
10
140.3470
20
337.8805
30
0.0
0
VERTEX
8
CUT_OUTER
10
140.1970
20
338.2525
30
0.0
0
VERTEX
8
CUT_OUTER
10
139.7650
20
338.8015
30
0.0
0
VERTEX
8
CUT_OUTER
10
139.1350
20
339.2335
30
0.0
0
VERTEX
8
CUT_OUTER
10
138.5420
20
339.4055
30
0.0
0
VERTEX
8
CUT_OUTER
10
137.7720
20
339.3955
30
0.0
0
VERTEX
8
CUT_OUTER
10
136.9310
20
339.2205
30
0.0
0
VERTEX
8
CUT_OUTER
10
136.1550
20
338.8795
30
0.0
0
VERTEX
8
CUT_OUTER
10
135.5420
20
338.4545
30
0.0
0
VERTEX
8
CUT_OUTER
10
134.7130
20
337.6885
30
0.0
0
VERTEX
8
CUT_OUTER
10
135.1150
20
338.7285
30
0.0
0
VERTEX
8
CUT_OUTER
10
135.0250
20
339.0795
30
0.0
0
VERTEX
8
CUT_OUTER
10
134.8910
20
339.1675
30
0.0
0
VERTEX
8
CUT_OUTER
10
133.9880
20
339.3965
30
0.0
0
VERTEX
8
CUT_OUTER
10
133.4960
20
339.4195
30
0.0
0
VERTEX
8
CUT_OUTER
10
133.0640
20
339.3565
30
0.0
0
VERTEX
8
CUT_OUTER
10
132.3920
20
339.0425
30
0.0
0
VERTEX
8
CUT_OUTER
10
131.8690
20
338.4855
30
0.0
0
VERTEX
8
CUT_OUTER
10
131.5820
20
337.9425
30
0.0
0
VERTEX
8
CUT_OUTER
10
130.0950
20
334.3015
30
0.0
0
VERTEX
8
CUT_OUTER
10
129.2030
20
332.7315
30
0.0
0
VERTEX
8
CUT_OUTER
10
128.5650
20
331.7515
30
0.0
0
VERTEX
8
CUT_OUTER
10
127.9350
20
330.9415
30
0.0
0
VERTEX
8
CUT_OUTER
10
127.1570
20
330.1325
30
0.0
0
VERTEX
8
CUT_OUTER
10
126.9220
20
329.9695
30
0.0
0
VERTEX
8
CUT_OUTER
10
126.7540
20
329.9465
30
0.0
0
VERTEX
8
CUT_OUTER
10
126.6690
20
330.2645
30
0.0
0
VERTEX
8
CUT_OUTER
10
126.7300
20
330.8315
30
0.0
0
VERTEX
8
CUT_OUTER
10
127.4120
20
332.7795
30
0.0
0
VERTEX
8
CUT_OUTER
10
128.1520
20
334.5185
30
0.0
0
VERTEX
8
CUT_OUTER
10
128.7850
20
335.8055
30
0.0
0
VERTEX
8
CUT_OUTER
10
130.4920
20
338.5285
30
0.0
0
VERTEX
8
CUT_OUTER
10
130.5180
20
338.7455
30
0.0
0
VERTEX
8
CUT_OUTER
10
130.4010
20
338.9535
30
0.0
0
VERTEX
8
CUT_OUTER
10
130.0470
20
339.1735
30
0.0
0
VERTEX
8
CUT_OUTER
10
129.6220
20
339.3065
30
0.0
0
VERTEX
8
CUT_OUTER
10
129.1000
20
339.3545
30
0.0
0
VERTEX
8
CUT_OUTER
10
128.6020
20
339.3105
30
0.0
0
VERTEX
8
CUT_OUTER
10
128.0990
20
339.1785
30
0.0
0
VERTEX
8
CUT_OUTER
10
127.6950
20
338.9935
30
0.0
0
VERTEX
8
CUT_OUTER
10
127.2980
20
338.7365
30
0.0
0
VERTEX
8
CUT_OUTER
10
126.9400
20
338.3455
30
0.0
0
VERTEX
8
CUT_OUTER
10
126.7380
20
338.7345
30
0.0
0
VERTEX
8
CUT_OUTER
10
126.4870
20
339.0235
30
0.0
0
VERTEX
8
CUT_OUTER
10
126.1760
20
339.2305
30
0.0
0
VERTEX
8
CUT_OUTER
10
125.7840
20
339.3685
30
0.0
0
VERTEX
8
CUT_OUTER
10
124.7360
20
339.3985
30
0.0
0
VERTEX
8
CUT_OUTER
10
123.4430
20
339.1355
30
0.0
0
VERTEX
8
CUT_OUTER
10
122.2070
20
338.5855
30
0.0
0
VERTEX
8
CUT_OUTER
10
120.7510
20
337.5805
30
0.0
0
VERTEX
8
CUT_OUTER
10
119.5700
20
336.4435
30
0.0
0
VERTEX
8
CUT_OUTER
10
118.5550
20
335.0955
30
0.0
0
VERTEX
8
CUT_OUTER
10
117.8280
20
335.4105
30
0.0
0
VERTEX
8
CUT_OUTER
10
119.1050
20
338.3005
30
0.0
0
VERTEX
8
CUT_OUTER
10
119.2620
20
338.8975
30
0.0
0
VERTEX
8
CUT_OUTER
10
119.1120
20
339.1265
30
0.0
0
VERTEX
8
CUT_OUTER
10
118.7790
20
339.2885
30
0.0
0
VERTEX
8
CUT_OUTER
10
118.2010
20
339.3985
30
0.0
0
VERTEX
8
CUT_OUTER
10
117.6910
20
339.4115
30
0.0
0
VERTEX
8
CUT_OUTER
10
117.2130
20
339.2865
30
0.0
0
VERTEX
8
CUT_OUTER
10
116.8140
20
339.0545
30
0.0
0
VERTEX
8
CUT_OUTER
10
116.4260
20
338.6865
30
0.0
0
VERTEX
8
CUT_OUTER
10
115.9570
20
338.0815
30
0.0
0
VERTEX
8
CUT_OUTER
10
115.1930
20
336.7295
30
0.0
0
VERTEX
8
CUT_OUTER
10
113.8450
20
333.8035
30
0.0
0
VERTEX
8
CUT_OUTER
10
113.4600
20
333.1525
30
0.0
0
VERTEX
8
CUT_OUTER
10
112.9610
20
332.4775
30
0.0
0
VERTEX
8
CUT_OUTER
10
112.1610
20
331.5715
30
0.0
0
VERTEX
8
CUT_OUTER
10
111.3740
20
330.8185
30
0.0
0
VERTEX
8
CUT_OUTER
10
110.6350
20
330.2835
30
0.0
0
VERTEX
8
CUT_OUTER
10
110.0850
20
330.0495
30
0.0
0
VERTEX
8
CUT_OUTER
10
110.1560
20
330.5285
30
0.0
0
VERTEX
8
CUT_OUTER
10
110.4490
20
331.4215
30
0.0
0
VERTEX
8
CUT_OUTER
10
112.7420
20
336.7065
30
0.0
0
VERTEX
8
CUT_OUTER
10
113.5710
20
338.7715
30
0.0
0
VERTEX
8
CUT_OUTER
10
113.5320
20
339.0885
30
0.0
0
VERTEX
8
CUT_OUTER
10
113.2790
20
339.3115
30
0.0
0
VERTEX
8
CUT_OUTER
10
112.7170
20
339.4375
30
0.0
0
VERTEX
8
CUT_OUTER
10
112.1140
20
339.4395
30
0.0
0
VERTEX
8
CUT_OUTER
10
111.5280
20
339.3095
30
0.0
0
VERTEX
8
CUT_OUTER
10
110.9290
20
339.0495
30
0.0
0
VERTEX
8
CUT_OUTER
10
110.4840
20
338.7375
30
0.0
0
VERTEX
8
CUT_OUTER
10
110.1310
20
338.3445
30
0.0
0
VERTEX
8
CUT_OUTER
10
108.3790
20
334.6225
30
0.0
0
VERTEX
8
CUT_OUTER
10
107.5310
20
332.4055
30
0.0
0
VERTEX
8
CUT_OUTER
10
106.9370
20
331.5355
30
0.0
0
VERTEX
8
CUT_OUTER
10
106.3370
20
330.7995
30
0.0
0
VERTEX
8
CUT_OUTER
10
105.6580
20
330.1095
30
0.0
0
VERTEX
8
CUT_OUTER
10
105.3020
20
329.9425
30
0.0
0
VERTEX
8
CUT_OUTER
10
105.2340
20
330.0045
30
0.0
0
VERTEX
8
CUT_OUTER
10
105.1970
20
330.2865
30
0.0
0
VERTEX
8
CUT_OUTER
10
105.2840
20
330.9335
30
0.0
0
VERTEX
8
CUT_OUTER
10
105.5850
20
331.8775
30
0.0
0
VERTEX
8
CUT_OUTER
10
106.3330
20
333.7255
30
0.0
0
VERTEX
8
CUT_OUTER
10
107.3600
20
335.8925
30
0.0
0
VERTEX
8
CUT_OUTER
10
109.0050
20
338.4985
30
0.0
0
VERTEX
8
CUT_OUTER
10
109.0470
20
338.7455
30
0.0
0
VERTEX
8
CUT_OUTER
10
108.8850
20
338.9925
30
0.0
0
VERTEX
8
CUT_OUTER
10
108.4170
20
339.2355
30
0.0
0
VERTEX
8
CUT_OUTER
10
107.9230
20
339.3395
30
0.0
0
VERTEX
8
CUT_OUTER
10
107.3180
20
339.3375
30
0.0
0
VERTEX
8
CUT_OUTER
10
106.7800
20
339.2275
30
0.0
0
VERTEX
8
CUT_OUTER
10
106.2890
20
339.0295
30
0.0
0
VERTEX
8
CUT_OUTER
10
105.8420
20
338.7505
30
0.0
0
VERTEX
8
CUT_OUTER
10
105.4680
20
338.3455
30
0.0
0
VERTEX
8
CUT_OUTER
10
105.1310
20
338.9095
30
0.0
0
VERTEX
8
CUT_OUTER
10
104.6670
20
339.2495
30
0.0
0
VERTEX
8
CUT_OUTER
10
104.0850
20
339.4065
30
0.0
0
VERTEX
8
CUT_OUTER
10
103.2650
20
339.3985
30
0.0
0
VERTEX
8
CUT_OUTER
10
102.2260
20
339.2115
30
0.0
0
VERTEX
8
CUT_OUTER
10
101.2220
20
338.8395
30
0.0
0
VERTEX
8
CUT_OUTER
10
100.1540
20
338.2265
30
0.0
0
VERTEX
8
CUT_OUTER
10
99.0710
20
337.4045
30
0.0
0
VERTEX
8
CUT_OUTER
10
97.9190
20
336.2365
30
0.0
0
VERTEX
8
CUT_OUTER
10
96.9750
20
334.9205
30
0.0
0
VERTEX
8
CUT_OUTER
10
96.2090
20
333.3505
30
0.0
0
VERTEX
8
CUT_OUTER
10
95.9420
20
332.5175
30
0.0
0
VERTEX
8
CUT_OUTER
10
95.7940
20
331.7655
30
0.0
0
VERTEX
8
CUT_OUTER
10
95.0700
20
330.8405
30
0.0
0
VERTEX
8
CUT_OUTER
10
94.2630
20
330.0835
30
0.0
0
VERTEX
8
CUT_OUTER
10
93.5280
20
329.6485
30
0.0
0
VERTEX
8
CUT_OUTER
10
92.6820
20
329.4185
30
0.0
0
VERTEX
8
CUT_OUTER
10
92.2390
20
329.3995
30
0.0
0
VERTEX
8
CUT_OUTER
10
91.9230
20
329.4655
30
0.0
0
VERTEX
8
CUT_OUTER
10
91.7180
20
329.6735
30
0.0
0
VERTEX
8
CUT_OUTER
10
91.5940
20
330.0735
30
0.0
0
VERTEX
8
CUT_OUTER
10
91.6000
20
330.6015
30
0.0
0
VERTEX
8
CUT_OUTER
10
91.7170
20
331.1995
30
0.0
0
VERTEX
8
CUT_OUTER
10
92.7120
20
334.5035
30
0.0
0
VERTEX
8
CUT_OUTER
10
93.8790
20
337.3625
30
0.0
0
VERTEX
8
CUT_OUTER
10
94.7110
20
339.0425
30
0.0
0
VERTEX
8
CUT_OUTER
10
95.9210
20
341.2285
30
0.0
0
VERTEX
8
CUT_OUTER
10
97.0500
20
343.0755
30
0.0
0
VERTEX
8
CUT_OUTER
10
98.4210
20
345.1125
30
0.0
0
VERTEX
8
CUT_OUTER
10
99.5640
20
346.6355
30
0.0
0
VERTEX
8
CUT_OUTER
10
100.5280
20
347.7835
30
0.0
0
VERTEX
8
CUT_OUTER
10
101.2860
20
348.4685
30
0.0
0
VERTEX
8
CUT_OUTER
10
102.2800
20
349.1395
30
0.0
0
VERTEX
8
CUT_OUTER
10
102.4010
20
349.2775
30
0.0
0
VERTEX
8
CUT_OUTER
10
102.5070
20
349.7885
30
0.0
0
VERTEX
8
CUT_OUTER
10
102.4240
20
349.9965
30
0.0
0
VERTEX
8
CUT_OUTER
10
102.2780
20
350.0815
30
0.0
0
VERTEX
8
CUT_OUTER
10
101.4960
20
350.1905
30
0.0
0
VERTEX
8
CUT_OUTER
10
100.6200
20
350.1335
30
0.0
0
VERTEX
8
CUT_OUTER
10
99.6530
20
349.9345
30
0.0
0
VERTEX
8
CUT_OUTER
10
98.2570
20
349.4885
30
0.0
0
VERTEX
8
CUT_OUTER
10
97.0030
20
348.9725
30
0.0
0
VERTEX
8
CUT_OUTER
10
95.7980
20
348.3615
30
0.0
0
VERTEX
8
CUT_OUTER
10
94.8190
20
347.7605
30
0.0
0
VERTEX
8
CUT_OUTER
10
93.6900
20
346.9415
30
0.0
0
VERTEX
8
CUT_OUTER
10
92.7760
20
346.1685
30
0.0
0
VERTEX
8
CUT_OUTER
10
90.5480
20
343.9565
30
0.0
0
VERTEX
8
CUT_OUTER
10
88.3410
20
341.3125
30
0.0
0
VERTEX
8
CUT_OUTER
10
86.0370
20
338.1005
30
0.0
0
VERTEX
8
CUT_OUTER
10
83.2640
20
333.7495
30
0.0
0
VERTEX
8
CUT_OUTER
10
84.2550
20
339.0155
30
0.0
0
VERTEX
8
CUT_OUTER
10
84.7180
20
340.9785
30
0.0
0
VERTEX
8
CUT_OUTER
10
85.2090
20
342.7335
30
0.0
0
VERTEX
8
CUT_OUTER
10
85.7890
20
344.4715
30
0.0
0
VERTEX
8
CUT_OUTER
10
86.3920
20
346.0165
30
0.0
0
VERTEX
8
CUT_OUTER
10
87.2030
20
347.7125
30
0.0
0
VERTEX
8
CUT_OUTER
10
88.0840
20
349.2535
30
0.0
0
VERTEX
8
CUT_OUTER
10
88.1100
20
349.4285
30
0.0
0
VERTEX
8
CUT_OUTER
10
87.9430
20
349.6685
30
0.0
0
VERTEX
8
CUT_OUTER
10
87.5190
20
349.9155
30
0.0
0
VERTEX
8
CUT_OUTER
10
87.0880
20
350.0155
30
0.0
0
VERTEX
8
CUT_OUTER
10
86.6390
20
349.9995
30
0.0
0
VERTEX
8
CUT_OUTER
10
84.7890
20
349.4275
30
0.0
0
VERTEX
8
CUT_OUTER
10
83.2430
20
348.6155
30
0.0
0
VERTEX
8
CUT_OUTER
10
82.0810
20
347.7835
30
0.0
0
VERTEX
8
CUT_OUTER
10
81.0070
20
346.8205
30
0.0
0
VERTEX
8
CUT_OUTER
10
80.0330
20
345.7635
30
0.0
0
VERTEX
8
CUT_OUTER
10
79.1080
20
344.5435
30
0.0
0
VERTEX
8
CUT_OUTER
10
78.4800
20
343.5515
30
0.0
0
VERTEX
8
CUT_OUTER
10
77.3960
20
341.6165
30
0.0
0
VERTEX
8
CUT_OUTER
10
74.1720
20
335.5045
30
0.0
0
VERTEX
8
CUT_OUTER
10
72.9770
20
333.5765
30
0.0
0
VERTEX
8
CUT_OUTER
10
71.9800
20
332.1865
30
0.0
0
VERTEX
8
CUT_OUTER
10
70.9170
20
330.9745
30
0.0
0
VERTEX
8
CUT_OUTER
10
69.6420
20
329.8225
30
0.0
0
VERTEX
8
CUT_OUTER
10
68.5940
20
329.1275
30
0.0
0
VERTEX
8
CUT_OUTER
10
67.4550
20
328.6605
30
0.0
0
VERTEX
8
CUT_OUTER
10
66.5810
20
328.4645
30
0.0
0
VERTEX
8
CUT_OUTER
10
65.8430
20
328.3905
30
0.0
0
VERTEX
8
CUT_OUTER
10
64.7840
20
328.4035
30
0.0
0
VERTEX
8
CUT_OUTER
10
63.8210
20
328.5165
30
0.0
0
VERTEX
8
CUT_OUTER
10
62.9220
20
328.7245
30
0.0
0
VERTEX
8
CUT_OUTER
10
62.2000
20
328.9945
30
0.0
0
VERTEX
8
CUT_OUTER
10
61.5570
20
329.3495
30
0.0
0
VERTEX
8
CUT_OUTER
10
60.9910
20
329.7925
30
0.0
0
VERTEX
8
CUT_OUTER
10
60.5090
20
330.3215
30
0.0
0
VERTEX
8
CUT_OUTER
10
60.1580
20
330.8625
30
0.0
0
VERTEX
8
CUT_OUTER
10
59.8360
20
331.5725
30
0.0
0
VERTEX
8
CUT_OUTER
10
59.6350
20
332.2745
30
0.0
0
VERTEX
8
CUT_OUTER
10
59.5220
20
333.0735
30
0.0
0
VERTEX
8
CUT_OUTER
10
59.5000
20
333.9705
30
0.0
0
VERTEX
8
CUT_OUTER
10
59.5770
20
335.0385
30
0.0
0
VERTEX
8
CUT_OUTER
10
59.7290
20
335.8985
30
0.0
0
VERTEX
8
CUT_OUTER
10
60.1480
20
337.1805
30
0.0
0
VERTEX
8
CUT_OUTER
10
60.7680
20
338.3585
30
0.0
0
VERTEX
8
CUT_OUTER
10
61.5520
20
339.3835
30
0.0
0
VERTEX
8
CUT_OUTER
10
62.4930
20
340.2555
30
0.0
0
VERTEX
8
CUT_OUTER
10
63.6710
20
341.0125
30
0.0
0
VERTEX
8
CUT_OUTER
10
64.8790
20
341.5165
30
0.0
0
VERTEX
8
CUT_OUTER
10
66.0550
20
341.7725
30
0.0
0
VERTEX
8
CUT_OUTER
10
67.3990
20
341.8255
30
0.0
0
VERTEX
8
CUT_OUTER
10
68.1460
20
341.7155
30
0.0
0
VERTEX
8
CUT_OUTER
10
68.8110
20
341.4895
30
0.0
0
VERTEX
8
CUT_OUTER
10
69.4010
20
341.1475
30
0.0
0
VERTEX
8
CUT_OUTER
10
69.9800
20
340.6405
30
0.0
0
VERTEX
8
CUT_OUTER
10
70.4350
20
340.0455
30
0.0
0
VERTEX
8
CUT_OUTER
10
70.7680
20
339.3575
30
0.0
0
VERTEX
8
CUT_OUTER
10
70.8790
20
338.8205
30
0.0
0
VERTEX
8
CUT_OUTER
10
70.8950
20
338.1195
30
0.0
0
VERTEX
8
CUT_OUTER
10
70.7980
20
337.5155
30
0.0
0
VERTEX
8
CUT_OUTER
10
70.6120
20
336.9935
30
0.0
0
VERTEX
8
CUT_OUTER
10
70.2940
20
336.5005
30
0.0
0
VERTEX
8
CUT_OUTER
10
69.9490
20
336.1845
30
0.0
0
VERTEX
8
CUT_OUTER
10
69.5510
20
336.0165
30
0.0
0
VERTEX
8
CUT_OUTER
10
69.1360
20
335.9825
30
0.0
0
VERTEX
8
CUT_OUTER
10
68.8810
20
336.2485
30
0.0
0
VERTEX
8
CUT_OUTER
10
68.6740
20
336.7725
30
0.0
0
VERTEX
8
CUT_OUTER
10
68.4530
20
337.0555
30
0.0
0
VERTEX
8
CUT_OUTER
10
68.0750
20
337.2405
30
0.0
0
VERTEX
8
CUT_OUTER
10
67.6520
20
337.2485
30
0.0
0
VERTEX
8
CUT_OUTER
10
67.1840
20
337.0265
30
0.0
0
VERTEX
8
CUT_OUTER
10
66.8730
20
336.6205
30
0.0
0
VERTEX
8
CUT_OUTER
10
66.7940
20
336.1385
30
0.0
0
VERTEX
8
CUT_OUTER
10
66.9390
20
335.5915
30
0.0
0
VERTEX
8
CUT_OUTER
10
67.1600
20
335.2555
30
0.0
0
VERTEX
8
CUT_OUTER
10
67.5130
20
334.9765
30
0.0
0
VERTEX
8
CUT_OUTER
10
68.0630
20
334.7515
30
0.0
0
VERTEX
8
CUT_OUTER
10
68.6220
20
334.6355
30
0.0
0
VERTEX
8
CUT_OUTER
10
69.4600
20
334.7115
30
0.0
0
VERTEX
8
CUT_OUTER
10
70.5090
20
335.1985
30
0.0
0
VERTEX
8
CUT_OUTER
10
71.1720
20
335.7345
30
0.0
0
VERTEX
8
CUT_OUTER
10
71.7050
20
336.5545
30
0.0
0
VERTEX
8
CUT_OUTER
10
72.0300
20
337.4945
30
0.0
0
VERTEX
8
CUT_OUTER
10
72.1470
20
338.5505
30
0.0
0
VERTEX
8
CUT_OUTER
10
72.0390
20
339.4425
30
0.0
0
VERTEX
8
CUT_OUTER
10
71.7100
20
340.3205
30
0.0
0
VERTEX
8
CUT_OUTER
10
71.1960
20
341.1275
30
0.0
0
VERTEX
8
CUT_OUTER
10
70.5030
20
341.8435
30
0.0
0
VERTEX
8
CUT_OUTER
10
69.7670
20
342.3805
30
0.0
0
VERTEX
8
CUT_OUTER
10
69.0750
20
342.7405
30
0.0
0
VERTEX
8
CUT_OUTER
10
68.3470
20
342.9965
30
0.0
0
VERTEX
8
CUT_OUTER
10
67.4530
20
343.1665
30
0.0
0
VERTEX
8
CUT_OUTER
10
66.5160
20
343.2035
30
0.0
0
VERTEX
8
CUT_OUTER
10
65.4380
20
343.1195
30
0.0
0
VERTEX
8
CUT_OUTER
10
64.5370
20
342.9375
30
0.0
0
VERTEX
8
CUT_OUTER
10
63.6580
20
342.6525
30
0.0
0
VERTEX
8
CUT_OUTER
10
62.6940
20
342.2225
30
0.0
0
VERTEX
8
CUT_OUTER
10
61.7950
20
341.7065
30
0.0
0
VERTEX
8
CUT_OUTER
10
60.9630
20
341.1065
30
0.0
0
VERTEX
8
CUT_OUTER
10
60.1940
20
340.4185
30
0.0
0
VERTEX
8
CUT_OUTER
10
59.4240
20
339.5555
30
0.0
0
VERTEX
8
CUT_OUTER
10
58.8390
20
338.7275
30
0.0
0
VERTEX
8
CUT_OUTER
10
58.3410
20
337.8315
30
0.0
0
VERTEX
8
CUT_OUTER
10
57.9580
20
336.9185
30
0.0
0
VERTEX
8
CUT_OUTER
10
57.6650
20
335.8485
30
0.0
0
VERTEX
8
CUT_OUTER
10
57.5320
20
334.7455
30
0.0
0
VERTEX
8
CUT_OUTER
10
57.5530
20
333.5075
30
0.0
0
VERTEX
8
CUT_OUTER
10
57.7230
20
332.5015
30
0.0
0
VERTEX
8
CUT_OUTER
10
58.0360
20
331.5725
30
0.0
0
VERTEX
8
CUT_OUTER
10
58.5350
20
330.6225
30
0.0
0
VERTEX
8
CUT_OUTER
10
59.1360
20
329.7885
30
0.0
0
VERTEX
8
CUT_OUTER
10
59.8410
20
329.0675
30
0.0
0
VERTEX
8
CUT_OUTER
10
60.7290
20
328.3935
30
0.0
0
VERTEX
8
CUT_OUTER
10
61.6970
20
327.8535
30
0.0
0
VERTEX
8
CUT_OUTER
10
62.8520
20
327.4135
30
0.0
0
VERTEX
8
CUT_OUTER
10
64.0140
20
327.1395
30
0.0
0
VERTEX
8
CUT_OUTER
10
65.1440
20
327.0375
30
0.0
0
VERTEX
8
CUT_OUTER
10
66.4370
20
327.0955
30
0.0
0
VERTEX
8
CUT_OUTER
10
67.7060
20
327.3125
30
0.0
0
VERTEX
8
CUT_OUTER
10
68.7140
20
327.6285
30
0.0
0
VERTEX
8
CUT_OUTER
10
70.0750
20
328.3145
30
0.0
0
VERTEX
8
CUT_OUTER
10
71.2970
20
329.1815
30
0.0
0
VERTEX
8
CUT_OUTER
10
72.4000
20
330.2195
30
0.0
0
VERTEX
8
CUT_OUTER
10
73.3880
20
331.4055
30
0.0
0
VERTEX
8
CUT_OUTER
10
74.0990
20
332.4115
30
0.0
0
VERTEX
8
CUT_OUTER
10
74.8460
20
333.6465
30
0.0
0
VERTEX
8
CUT_OUTER
10
78.1130
20
339.9505
30
0.0
0
VERTEX
8
CUT_OUTER
10
79.7730
20
342.8905
30
0.0
0
VERTEX
8
CUT_OUTER
10
80.7080
20
344.2275
30
0.0
0
VERTEX
8
CUT_OUTER
10
81.7320
20
345.4515
30
0.0
0
VERTEX
8
CUT_OUTER
10
83.2400
20
346.7105
30
0.0
0
VERTEX
8
CUT_OUTER
10
82.2640
20
344.2915
30
0.0
0
VERTEX
8
CUT_OUTER
10
81.4320
20
341.4835
30
0.0
0
VERTEX
8
CUT_OUTER
10
80.7380
20
337.9885
30
0.0
0
VERTEX
8
CUT_OUTER
10
79.9500
20
332.0465
30
0.0
0
VERTEX
8
CUT_OUTER
10
79.5910
20
330.7085
30
0.0
0
VERTEX
8
CUT_OUTER
10
78.9460
20
329.2005
30
0.0
0
SEQEND
8
CUT_OUTER
0
POLYLINE
8
CUT_INNER
66
1
70
1
10
0.0
20
0.0
30
0.0
0
VERTEX
8
CUT_INNER
10
120.2940
20
330.3515
30
0.0
0
VERTEX
8
CUT_INNER
10
120.3740
20
330.0705
30
0.0
0
VERTEX
8
CUT_INNER
10
120.4850
20
329.9405
30
0.0
0
VERTEX
8
CUT_INNER
10
120.8860
20
330.0185
30
0.0
0
VERTEX
8
CUT_INNER
10
121.3630
20
330.2775
30
0.0
0
VERTEX
8
CUT_INNER
10
122.4240
20
331.2655
30
0.0
0
VERTEX
8
CUT_INNER
10
123.4790
20
332.6045
30
0.0
0
VERTEX
8
CUT_INNER
10
124.5580
20
334.3695
30
0.0
0
VERTEX
8
CUT_INNER
10
125.4080
20
336.1945
30
0.0
0
VERTEX
8
CUT_INNER
10
125.8140
20
337.5405
30
0.0
0
VERTEX
8
CUT_INNER
10
125.7390
20
337.8115
30
0.0
0
VERTEX
8
CUT_INNER
10
125.5980
20
338.0065
30
0.0
0
VERTEX
8
CUT_INNER
10
125.3680
20
338.0345
30
0.0
0
VERTEX
8
CUT_INNER
10
125.0050
20
337.9095
30
0.0
0
VERTEX
8
CUT_INNER
10
124.1730
20
337.2985
30
0.0
0
VERTEX
8
CUT_INNER
10
123.1980
20
336.2535
30
0.0
0
VERTEX
8
CUT_INNER
10
122.1000
20
334.8085
30
0.0
0
VERTEX
8
CUT_INNER
10
121.1920
20
333.3525
30
0.0
0
VERTEX
8
CUT_INNER
10
120.5600
20
332.0395
30
0.0
0
VERTEX
8
CUT_INNER
10
120.2770
20
331.1085
30
0.0
0
SEQEND
8
CUT_INNER
0
POLYLINE
8
CUT_INNER
66
1
70
1
10
0.0
20
0.0
30
0.0
0
VERTEX
8
CUT_INNER
10
105.5670
20
321.9555
30
0.0
0
VERTEX
8
CUT_INNER
10
106.1720
20
322.0815
30
0.0
0
VERTEX
8
CUT_INNER
10
106.7690
20
322.2925
30
0.0
0
VERTEX
8
CUT_INNER
10
107.9400
20
322.9745
30
0.0
0
VERTEX
8
CUT_INNER
10
109.0120
20
323.9415
30
0.0
0
VERTEX
8
CUT_INNER
10
109.9940
20
325.2475
30
0.0
0
VERTEX
8
CUT_INNER
10
108.9430
20
325.4035
30
0.0
0
VERTEX
8
CUT_INNER
10
107.6610
20
325.4945
30
0.0
0
VERTEX
8
CUT_INNER
10
106.4490
20
325.5085
30
0.0
0
VERTEX
8
CUT_INNER
10
105.5650
20
325.4005
30
0.0
0
VERTEX
8
CUT_INNER
10
104.6580
20
325.1685
30
0.0
0
VERTEX
8
CUT_INNER
10
103.8290
20
324.8135
30
0.0
0
VERTEX
8
CUT_INNER
10
103.1810
20
324.3725
30
0.0
0
VERTEX
8
CUT_INNER
10
102.7200
20
323.8785
30
0.0
0
VERTEX
8
CUT_INNER
10
102.5290
20
323.4625
30
0.0
0
VERTEX
8
CUT_INNER
10
102.4750
20
323.0135
30
0.0
0
VERTEX
8
CUT_INNER
10
102.6380
20
322.7325
30
0.0
0
VERTEX
8
CUT_INNER
10
102.9720
20
322.4465
30
0.0
0
VERTEX
8
CUT_INNER
10
103.5050
20
322.1695
30
0.0
0
VERTEX
8
CUT_INNER
10
104.1490
20
321.9835
30
0.0
0
VERTEX
8
CUT_INNER
10
104.8550
20
321.9135
30
0.0
0
SEQEND
8
CUT_INNER
0
POLYLINE
8
CUT_INNER
66
1
70
1
10
0.0
20
0.0
30
0.0
0
VERTEX
8
CUT_INNER
10
98.8230
20
330.3515
30
0.0
0
VERTEX
8
CUT_INNER
10
98.9030
20
330.0705
30
0.0
0
VERTEX
8
CUT_INNER
10
99.0130
20
329.9405
30
0.0
0
VERTEX
8
CUT_INNER
10
99.4140
20
330.0185
30
0.0
0
VERTEX
8
CUT_INNER
10
99.8910
20
330.2775
30
0.0
0
VERTEX
8
CUT_INNER
10
100.9530
20
331.2655
30
0.0
0
VERTEX
8
CUT_INNER
10
102.0080
20
332.6045
30
0.0
0
VERTEX
8
CUT_INNER
10
103.0870
20
334.3695
30
0.0
0
VERTEX
8
CUT_INNER
10
103.9370
20
336.1945
30
0.0
0
VERTEX
8
CUT_INNER
10
104.3420
20
337.5405
30
0.0
0
VERTEX
8
CUT_INNER
10
104.2670
20
337.8115
30
0.0
0
VERTEX
8
CUT_INNER
10
104.1260
20
338.0065
30
0.0
0
VERTEX
8
CUT_INNER
10
103.8970
20
338.0345
30
0.0
0
VERTEX
8
CUT_INNER
10
103.5340
20
337.9095
30
0.0
0
VERTEX
8
CUT_INNER
10
102.7020
20
337.2985
30
0.0
0
VERTEX
8
CUT_INNER
10
101.7260
20
336.2535
30
0.0
0
VERTEX
8
CUT_INNER
10
100.6280
20
334.8085
30
0.0
0
VERTEX
8
CUT_INNER
10
99.7210
20
333.3525
30
0.0
0
VERTEX
8
CUT_INNER
10
99.0890
20
332.0395
30
0.0
0
VERTEX
8
CUT_INNER
10
98.8050
20
331.1085
30
0.0
0
SEQEND
8
CUT_INNER
0
ENDSEC
0
EOF
