0
SECTION
2
HEADER
9
$ACADVER
1
AC1009
9
$INSUNITS
70
4
9
$MEASUREMENT
70
1
9
$LUNITS
70
2
9
$EXTMIN
10
0.0
20
0.0
30
0.0
9
$EXTMAX
10
194.0000
20
384.0000
30
0.0
0
ENDSEC
0
SECTION
2
TABLES
0
TABLE
2
LTYPE
70
1
0
LTYPE
2
CONTINUOUS
70
0
3
Solid line
72
65
73
0
40
0.0
0
ENDTAB
0
TABLE
2
LAYER
70
2
0
LAYER
2
CUT_OUTER
70
0
62
1
6
CONTINUOUS
0
LAYER
2
CUT_INNER
70
0
62
1
6
CONTINUOUS
0
ENDTAB
0
ENDSEC
0
SECTION
2
ENTITIES
0
POLYLINE
8
CUT_OUTER
66
1
70
1
10
0.0
20
0.0
30
0.0
0
VERTEX
8
CUT_OUTER
10
3.0000
20
0.0000
30
0.0
42
0.0000000000
0
VERTEX
8
CUT_OUTER
10
191.0000
20
0.0000
30
0.0
42
0.4142135624
0
VERTEX
8
CUT_OUTER
10
194.0000
20
3.0000
30
0.0
42
0.0000000000
0
VERTEX
8
CUT_OUTER
10
194.0000
20
381.0000
30
0.0
42
0.4142135624
0
VERTEX
8
CUT_OUTER
10
191.0000
20
384.0000
30
0.0
42
0.0000000000
0
VERTEX
8
CUT_OUTER
10
3.0000
20
384.0000
30
0.0
42
0.4142135624
0
VERTEX
8
CUT_OUTER
10
0.0000
20
381.0000
30
0.0
42
0.0000000000
0
VERTEX
8
CUT_OUTER
10
0.0000
20
3.0000
30
0.0
42
0.4142135624
0
SEQEND
8
CUT_OUTER
0
POLYLINE
8
CUT_INNER
66
1
70
1
10
0.0
20
0.0
30
0.0
0
VERTEX
8
CUT_INNER
10
25.3900
20
27.8150
30
0.0
42
0.0000000000
0
VERTEX
8
CUT_INNER
10
174.6100
20
27.8150
30
0.0
42
0.4142135624
0
VERTEX
8
CUT_INNER
10
176.6100
20
29.8150
30
0.0
42
0.0000000000
0
VERTEX
8
CUT_INNER
10
176.6100
20
267.4850
30
0.0
42
0.4142135624
0
VERTEX
8
CUT_INNER
10
174.6100
20
269.4850
30
0.0
42
0.0000000000
0
VERTEX
8
CUT_INNER
10
25.3900
20
269.4850
30
0.0
42
0.4142135624
0
VERTEX
8
CUT_INNER
10
23.3900
20
267.4850
30
0.0
42
0.0000000000
0
VERTEX
8
CUT_INNER
10
23.3900
20
29.8150
30
0.0
42
0.4142135624
0
SEQEND
8
CUT_INNER
0
POLYLINE
8
CUT_INNER
66
1
70
1
10
0.0
20
0.0
30
0.0
0
VERTEX
8
CUT_INNER
10
28.4100
20
287.4850
30
0.0
42
0.0000000000
0
VERTEX
8
CUT_INNER
10
171.5900
20
287.4850
30
0.0
42
0.4142135624
0
VERTEX
8
CUT_INNER
10
173.5900
20
289.4850
30
0.0
42
0.0000000000
0
VERTEX
8
CUT_INNER
10
173.5900
20
354.1850
30
0.0
42
0.4142135624
0
VERTEX
8
CUT_INNER
10
171.5900
20
356.1850
30
0.0
42
0.0000000000
0
VERTEX
8
CUT_INNER
10
28.4100
20
356.1850
30
0.0
42
0.4142135624
0
VERTEX
8
CUT_INNER
10
26.4100
20
354.1850
30
0.0
42
0.0000000000
0
VERTEX
8
CUT_INNER
10
26.4100
20
289.4850
30
0.0
42
0.4142135624
0
SEQEND
8
CUT_INNER
0
CIRCLE
8
CUT_INNER
10
63.0000
20
371.0000
30
0.0
40
1.6000
0
CIRCLE
8
CUT_INNER
10
134.0000
20
371.0000
30
0.0
40
1.6000
0
CIRCLE
8
CUT_INNER
10
30.0000
20
16.0000
30
0.0
40
1.6000
0
CIRCLE
8
CUT_INNER
10
164.0000
20
16.0000
30
0.0
40
1.6000
0
POLYLINE
8
CUT_OUTER
66
1
70
1
10
0.0
20
0.0
30
0.0
0
VERTEX
8
CUT_OUTER
10
31.3900
20
32.8150
30
0.0
42
0.0000000000
0
VERTEX
8
CUT_OUTER
10
45.3900
20
32.8150
30
0.0
42
0.0000000000
0
VERTEX
8
CUT_OUTER
10
45.3900
20
224.8150
30
0.0
42
0.0000000000
0
VERTEX
8
CUT_OUTER
10
28.3900
20
224.8150
30
0.0
42
0.0000000000
0
VERTEX
8
CUT_OUTER
10
28.3900
20
35.8150
30
0.0
42
0.4142135624
0
SEQEND
8
CUT_OUTER
0
POLYLINE
8
CUT_OUTER
66
1
70
1
10
0.0
20
0.0
30
0.0
0
VERTEX
8
CUT_OUTER
10
50.3900
20
32.8150
30
0.0
42
0.0000000000
0
VERTEX
8
CUT_OUTER
10
67.3900
20
32.8150
30
0.0
42
0.0000000000
0
VERTEX
8
CUT_OUTER
10
67.3900
20
224.8150
30
0.0
42
0.0000000000
0
VERTEX
8
CUT_OUTER
10
53.3900
20
224.8150
30
0.0
42
0.4142135624
0
VERTEX
8
CUT_OUTER
10
50.3900
20
221.8150
30
0.0
42
0.0000000000
0
SEQEND
8
CUT_OUTER
0
POLYLINE
8
CUT_OUTER
66
1
70
1
10
0.0
20
0.0
30
0.0
0
VERTEX
8
CUT_OUTER
10
72.3900
20
32.8150
30
0.0
42
0.0000000000
0
VERTEX
8
CUT_OUTER
10
80.3900
20
32.8150
30
0.0
42
0.4142135624
0
VERTEX
8
CUT_OUTER
10
83.3900
20
35.8150
30
0.0
42
0.0000000000
0
VERTEX
8
CUT_OUTER
10
83.3900
20
224.8150
30
0.0
42
0.0000000000
0
VERTEX
8
CUT_OUTER
10
72.3900
20
224.8150
30
0.0
42
0.0000000000
0
SEQEND
8
CUT_OUTER
0
POLYLINE
8
CUT_OUTER
66
1
70
1
10
0.0
20
0.0
30
0.0
0
VERTEX
8
CUT_OUTER
10
88.3900
20
32.8150
30
0.0
42
0.0000000000
0
VERTEX
8
CUT_OUTER
10
99.3900
20
32.8150
30
0.0
42
0.0000000000
0
VERTEX
8
CUT_OUTER
10
99.3900
20
221.8150
30
0.0
42
0.4142135624
0
VERTEX
8
CUT_OUTER
10
96.3900
20
224.8150
30
0.0
42
0.0000000000
0
VERTEX
8
CUT_OUTER
10
88.3900
20
224.8150
30
0.0
42
0.0000000000
0
SEQEND
8
CUT_OUTER
0
POLYLINE
8
CUT_OUTER
66
1
70
1
10
0.0
20
0.0
30
0.0
0
VERTEX
8
CUT_OUTER
10
104.3900
20
32.8150
30
0.0
42
0.0000000000
0
VERTEX
8
CUT_OUTER
10
128.8900
20
32.8150
30
0.0
42
0.0000000000
0
VERTEX
8
CUT_OUTER
10
128.8900
20
198.8150
30
0.0
42
0.0000000000
0
VERTEX
8
CUT_OUTER
10
104.3900
20
198.8150
30
0.0
42
0.0000000000
0
SEQEND
8
CUT_OUTER
0
CIRCLE
8
CUT_INNER
10
117.3900
20
78.8150
30
0.0
40
1.6000
0
CIRCLE
8
CUT_INNER
10
117.3900
20
149.8150
30
0.0
40
1.6000
0
POLYLINE
8
CUT_OUTER
66
1
70
1
10
0.0
20
0.0
30
0.0
0
VERTEX
8
CUT_OUTER
10
133.8900
20
32.8150
30
0.0
42
0.0000000000
0
VERTEX
8
CUT_OUTER
10
155.3900
20
32.8150
30
0.0
42
0.0000000000
0
VERTEX
8
CUT_OUTER
10
155.3900
20
198.8150
30
0.0
42
0.0000000000
0
VERTEX
8
CUT_OUTER
10
133.8900
20
198.8150
30
0.0
42
0.0000000000
0
SEQEND
8
CUT_OUTER
0
CIRCLE
8
CUT_INNER
10
139.3900
20
45.8150
30
0.0
40
1.6000
0
CIRCLE
8
CUT_INNER
10
139.3900
20
179.8150
30
0.0
40
1.6000
0
POLYLINE
8
CUT_OUTER
66
1
70
1
10
0.0
20
0.0
30
0.0
0
VERTEX
8
CUT_OUTER
10
160.3900
20
32.8150
30
0.0
42
0.0000000000
0
VERTEX
8
CUT_OUTER
10
168.8900
20
32.8150
30
0.0
42
0.0000000000
0
VERTEX
8
CUT_OUTER
10
168.8900
20
198.8150
30
0.0
42
0.0000000000
0
VERTEX
8
CUT_OUTER
10
160.3900
20
198.8150
30
0.0
42
0.0000000000
0
SEQEND
8
CUT_OUTER
0
ENDSEC
0
EOF
